<svg width="171" height="89" viewBox="0 0 171 89" fill="none" xmlns="http://www.w3.org/2000/svg">
<g opacity="0.5">
<ellipse cx="4.72559" cy="4.76604" rx="4.72558" ry="4.76619" transform="rotate(180 4.72559 4.76604)" fill="#CFE2FF"/>
<ellipse cx="4.72559" cy="24.5639" rx="4.72558" ry="4.76619" transform="rotate(180 4.72559 24.5639)" fill="#CFE2FF"/>
<ellipse cx="4.72559" cy="44.3611" rx="4.72558" ry="4.76588" transform="rotate(180 4.72559 44.3611)" fill="#CFE2FF"/>
<ellipse cx="4.72559" cy="64.158" rx="4.72558" ry="4.76588" transform="rotate(180 4.72559 64.158)" fill="#CFE2FF"/>
<ellipse cx="4.72559" cy="83.9555" rx="4.72558" ry="4.76619" transform="rotate(180 4.72559 83.9555)" fill="#CFE2FF"/>
<ellipse cx="27.9893" cy="4.76604" rx="4.72558" ry="4.76619" transform="rotate(180 27.9893 4.76604)" fill="#CFE2FF"/>
<ellipse cx="27.9893" cy="24.5639" rx="4.72558" ry="4.76619" transform="rotate(180 27.9893 24.5639)" fill="#CFE2FF"/>
<ellipse cx="27.9893" cy="44.3611" rx="4.72558" ry="4.76588" transform="rotate(180 27.9893 44.3611)" fill="#CFE2FF"/>
<ellipse cx="27.9893" cy="64.158" rx="4.72558" ry="4.76588" transform="rotate(180 27.9893 64.158)" fill="#CFE2FF"/>
<ellipse cx="27.9893" cy="83.9555" rx="4.72558" ry="4.76619" transform="rotate(180 27.9893 83.9555)" fill="#CFE2FF"/>
<ellipse cx="51.2549" cy="4.76604" rx="4.72558" ry="4.76619" transform="rotate(180 51.2549 4.76604)" fill="#CFE2FF"/>
<ellipse cx="51.2549" cy="24.5639" rx="4.72558" ry="4.76619" transform="rotate(180 51.2549 24.5639)" fill="#CFE2FF"/>
<ellipse cx="51.2549" cy="44.3611" rx="4.72558" ry="4.76588" transform="rotate(180 51.2549 44.3611)" fill="#CFE2FF"/>
<ellipse cx="51.2549" cy="64.158" rx="4.72558" ry="4.76588" transform="rotate(180 51.2549 64.158)" fill="#CFE2FF"/>
<ellipse cx="51.2549" cy="83.9555" rx="4.72558" ry="4.76619" transform="rotate(180 51.2549 83.9555)" fill="#CFE2FF"/>
<ellipse cx="74.5186" cy="4.76604" rx="4.72558" ry="4.76619" transform="rotate(180 74.5186 4.76604)" fill="#CFE2FF"/>
<ellipse cx="74.5186" cy="24.5629" rx="4.72558" ry="4.76619" transform="rotate(180 74.5186 24.5629)" fill="#CFE2FF"/>
<ellipse cx="74.5186" cy="44.3611" rx="4.72558" ry="4.76588" transform="rotate(180 74.5186 44.3611)" fill="#CFE2FF"/>
<ellipse cx="74.5186" cy="64.158" rx="4.72558" ry="4.76588" transform="rotate(180 74.5186 64.158)" fill="#CFE2FF"/>
<ellipse cx="74.5186" cy="83.9555" rx="4.72559" ry="4.76619" transform="rotate(180 74.5186 83.9555)" fill="#CFE2FF"/>
</g>
<g opacity="0.5">
<ellipse cx="95.7256" cy="4.76604" rx="4.72559" ry="4.76619" transform="rotate(180 95.7256 4.76604)" fill="#CFE2FF"/>
<ellipse cx="95.7256" cy="24.5639" rx="4.72559" ry="4.76619" transform="rotate(180 95.7256 24.5639)" fill="#CFE2FF"/>
<ellipse cx="95.7256" cy="44.3611" rx="4.72559" ry="4.76588" transform="rotate(180 95.7256 44.3611)" fill="#CFE2FF"/>
<ellipse cx="95.7256" cy="64.158" rx="4.72558" ry="4.76588" transform="rotate(180 95.7256 64.158)" fill="#CFE2FF"/>
<ellipse cx="95.7256" cy="83.9555" rx="4.72558" ry="4.76619" transform="rotate(180 95.7256 83.9555)" fill="#CFE2FF"/>
<ellipse cx="118.989" cy="4.76604" rx="4.72559" ry="4.76619" transform="rotate(180 118.989 4.76604)" fill="#CFE2FF"/>
<ellipse cx="118.989" cy="24.5639" rx="4.72559" ry="4.76619" transform="rotate(180 118.989 24.5639)" fill="#CFE2FF"/>
<ellipse cx="118.989" cy="44.3611" rx="4.72559" ry="4.76588" transform="rotate(180 118.989 44.3611)" fill="#CFE2FF"/>
<ellipse cx="118.989" cy="64.158" rx="4.72558" ry="4.76588" transform="rotate(180 118.989 64.158)" fill="#CFE2FF"/>
<ellipse cx="118.989" cy="83.9555" rx="4.72558" ry="4.76619" transform="rotate(180 118.989 83.9555)" fill="#CFE2FF"/>
<ellipse cx="142.255" cy="4.76604" rx="4.72559" ry="4.76619" transform="rotate(180 142.255 4.76604)" fill="#CFE2FF"/>
<ellipse cx="142.255" cy="24.5639" rx="4.72559" ry="4.76619" transform="rotate(180 142.255 24.5639)" fill="#CFE2FF"/>
<ellipse cx="142.255" cy="44.3611" rx="4.72559" ry="4.76588" transform="rotate(180 142.255 44.3611)" fill="#CFE2FF"/>
<ellipse cx="142.255" cy="64.158" rx="4.72558" ry="4.76588" transform="rotate(180 142.255 64.158)" fill="#CFE2FF"/>
<ellipse cx="142.255" cy="83.9555" rx="4.72558" ry="4.76619" transform="rotate(180 142.255 83.9555)" fill="#CFE2FF"/>
<ellipse cx="165.519" cy="4.76604" rx="4.72558" ry="4.76619" transform="rotate(180 165.519 4.76604)" fill="#CFE2FF"/>
<ellipse cx="165.519" cy="24.5629" rx="4.72558" ry="4.76619" transform="rotate(180 165.519 24.5629)" fill="#CFE2FF"/>
<ellipse cx="165.519" cy="44.3611" rx="4.72558" ry="4.76588" transform="rotate(180 165.519 44.3611)" fill="#CFE2FF"/>
<ellipse cx="165.519" cy="64.158" rx="4.72558" ry="4.76588" transform="rotate(180 165.519 64.158)" fill="#CFE2FF"/>
<ellipse cx="165.519" cy="83.9555" rx="4.72559" ry="4.76619" transform="rotate(180 165.519 83.9555)" fill="#CFE2FF"/>
</g>
</svg>
