<svg width="400" height="184" viewBox="0 0 400 184" fill="none" xmlns="http://www.w3.org/2000/svg">
<circle cx="311.923" cy="78.8462" r="5" transform="rotate(90 311.923 78.8462)" fill="#F8F9FA"/>
<circle cx="332.692" cy="78.8462" r="5" transform="rotate(90 332.692 78.8462)" fill="#F8F9FA"/>
<circle cx="353.461" cy="78.8462" r="5" transform="rotate(90 353.461 78.8462)" fill="#F8F9FA"/>
<circle cx="374.231" cy="78.8462" r="5" transform="rotate(90 374.231 78.8462)" fill="#F8F9FA"/>
<circle cx="395" cy="78.8462" r="5" transform="rotate(90 395 78.8462)" fill="#F8F9FA"/>
<circle cx="311.923" cy="54.231" r="5" transform="rotate(90 311.923 54.231)" fill="#F8F9FA"/>
<circle cx="332.692" cy="54.231" r="5" transform="rotate(90 332.692 54.231)" fill="#F8F9FA"/>
<circle cx="353.461" cy="54.231" r="5" transform="rotate(90 353.461 54.231)" fill="#F8F9FA"/>
<circle cx="374.231" cy="54.231" r="5" transform="rotate(90 374.231 54.231)" fill="#F8F9FA"/>
<circle cx="395" cy="54.231" r="5" transform="rotate(90 395 54.231)" fill="#F8F9FA"/>
<circle cx="311.923" cy="29.6152" r="5" transform="rotate(90 311.923 29.6152)" fill="#F8F9FA"/>
<circle cx="332.692" cy="29.6152" r="5" transform="rotate(90 332.692 29.6152)" fill="#F8F9FA"/>
<circle cx="353.461" cy="29.6152" r="5" transform="rotate(90 353.461 29.6152)" fill="#F8F9FA"/>
<circle cx="374.231" cy="29.6152" r="5" transform="rotate(90 374.231 29.6152)" fill="#F8F9FA"/>
<circle cx="395" cy="29.6152" r="5" transform="rotate(90 395 29.6152)" fill="#F8F9FA"/>
<circle cx="311.923" cy="5" r="5" transform="rotate(90 311.923 5)" fill="#F8F9FA"/>
<circle cx="332.692" cy="5" r="5" transform="rotate(90 332.692 5)" fill="#F8F9FA"/>
<circle cx="353.461" cy="5" r="5" transform="rotate(90 353.461 5)" fill="#F8F9FA"/>
<circle cx="374.231" cy="5" r="5" transform="rotate(90 374.231 5)" fill="#F8F9FA"/>
<circle cx="395" cy="5" r="5" transform="rotate(90 395 5)" fill="#F8F9FA"/>
<circle cx="311.923" cy="178.077" r="5" transform="rotate(90 311.923 178.077)" fill="#F8F9FA"/>
<circle cx="332.692" cy="178.077" r="5" transform="rotate(90 332.692 178.077)" fill="#F8F9FA"/>
<circle cx="353.461" cy="178.077" r="5" transform="rotate(90 353.461 178.077)" fill="#F8F9FA"/>
<circle cx="374.231" cy="178.077" r="5" transform="rotate(90 374.231 178.077)" fill="#F8F9FA"/>
<circle cx="395" cy="178.077" r="5" transform="rotate(90 395 178.077)" fill="#F8F9FA"/>
<circle cx="311.923" cy="153.461" r="5" transform="rotate(90 311.923 153.461)" fill="#F8F9FA"/>
<circle cx="332.692" cy="153.461" r="5" transform="rotate(90 332.692 153.461)" fill="#F8F9FA"/>
<circle cx="353.461" cy="153.461" r="5" transform="rotate(90 353.461 153.461)" fill="#F8F9FA"/>
<circle cx="374.231" cy="153.461" r="5" transform="rotate(90 374.231 153.461)" fill="#F8F9FA"/>
<circle cx="395" cy="153.461" r="5" transform="rotate(90 395 153.461)" fill="#F8F9FA"/>
<circle cx="311.923" cy="128.846" r="5" transform="rotate(90 311.923 128.846)" fill="#F8F9FA"/>
<circle cx="332.692" cy="128.846" r="5" transform="rotate(90 332.692 128.846)" fill="#F8F9FA"/>
<circle cx="353.461" cy="128.846" r="5" transform="rotate(90 353.461 128.846)" fill="#F8F9FA"/>
<circle cx="374.231" cy="128.846" r="5" transform="rotate(90 374.231 128.846)" fill="#F8F9FA"/>
<circle cx="395" cy="128.846" r="5" transform="rotate(90 395 128.846)" fill="#F8F9FA"/>
<circle cx="311.923" cy="104.23" r="5" transform="rotate(90 311.923 104.23)" fill="#F8F9FA"/>
<circle cx="332.692" cy="104.23" r="5" transform="rotate(90 332.692 104.23)" fill="#F8F9FA"/>
<circle cx="353.461" cy="104.23" r="5" transform="rotate(90 353.461 104.23)" fill="#F8F9FA"/>
<circle cx="374.231" cy="104.23" r="5" transform="rotate(90 374.231 104.23)" fill="#F8F9FA"/>
<circle cx="395" cy="104.23" r="5" transform="rotate(90 395 104.23)" fill="#F8F9FA"/>
<circle cx="210" cy="78.8462" r="5" transform="rotate(90 210 78.8462)" fill="#F8F9FA"/>
<circle cx="230.769" cy="78.8462" r="5" transform="rotate(90 230.769 78.8462)" fill="#F8F9FA"/>
<circle cx="251.538" cy="78.8462" r="5" transform="rotate(90 251.538 78.8462)" fill="#F8F9FA"/>
<circle cx="272.308" cy="78.8462" r="5" transform="rotate(90 272.308 78.8462)" fill="#F8F9FA"/>
<circle cx="293.077" cy="78.8462" r="5" transform="rotate(90 293.077 78.8462)" fill="#F8F9FA"/>
<circle cx="210" cy="54.231" r="5" transform="rotate(90 210 54.231)" fill="#F8F9FA"/>
<circle cx="230.769" cy="54.231" r="5" transform="rotate(90 230.769 54.231)" fill="#F8F9FA"/>
<circle cx="251.538" cy="54.231" r="5" transform="rotate(90 251.538 54.231)" fill="#F8F9FA"/>
<circle cx="272.308" cy="54.231" r="5" transform="rotate(90 272.308 54.231)" fill="#F8F9FA"/>
<circle cx="293.077" cy="54.231" r="5" transform="rotate(90 293.077 54.231)" fill="#F8F9FA"/>
<circle cx="210" cy="29.6152" r="5" transform="rotate(90 210 29.6152)" fill="#F8F9FA"/>
<circle cx="230.769" cy="29.6152" r="5" transform="rotate(90 230.769 29.6152)" fill="#F8F9FA"/>
<circle cx="251.538" cy="29.6152" r="5" transform="rotate(90 251.538 29.6152)" fill="#F8F9FA"/>
<circle cx="272.308" cy="29.6152" r="5" transform="rotate(90 272.308 29.6152)" fill="#F8F9FA"/>
<circle cx="293.077" cy="29.6152" r="5" transform="rotate(90 293.077 29.6152)" fill="#F8F9FA"/>
<circle cx="210" cy="5" r="5" transform="rotate(90 210 5)" fill="#F8F9FA"/>
<circle cx="230.769" cy="5" r="5" transform="rotate(90 230.769 5)" fill="#F8F9FA"/>
<circle cx="251.538" cy="5" r="5" transform="rotate(90 251.538 5)" fill="#F8F9FA"/>
<circle cx="272.308" cy="5" r="5" transform="rotate(90 272.308 5)" fill="#F8F9FA"/>
<circle cx="293.077" cy="5" r="5" transform="rotate(90 293.077 5)" fill="#F8F9FA"/>
<circle cx="210" cy="178.077" r="5" transform="rotate(90 210 178.077)" fill="#F8F9FA"/>
<circle cx="230.769" cy="178.077" r="5" transform="rotate(90 230.769 178.077)" fill="#F8F9FA"/>
<circle cx="251.539" cy="178.077" r="5" transform="rotate(90 251.539 178.077)" fill="#F8F9FA"/>
<circle cx="272.308" cy="178.077" r="5" transform="rotate(90 272.308 178.077)" fill="#F8F9FA"/>
<circle cx="293.077" cy="178.077" r="5" transform="rotate(90 293.077 178.077)" fill="#F8F9FA"/>
<circle cx="210" cy="153.461" r="5" transform="rotate(90 210 153.461)" fill="#F8F9FA"/>
<circle cx="230.769" cy="153.461" r="5" transform="rotate(90 230.769 153.461)" fill="#F8F9FA"/>
<circle cx="251.539" cy="153.461" r="5" transform="rotate(90 251.539 153.461)" fill="#F8F9FA"/>
<circle cx="272.308" cy="153.461" r="5" transform="rotate(90 272.308 153.461)" fill="#F8F9FA"/>
<circle cx="293.077" cy="153.461" r="5" transform="rotate(90 293.077 153.461)" fill="#F8F9FA"/>
<circle cx="210" cy="128.846" r="5" transform="rotate(90 210 128.846)" fill="#F8F9FA"/>
<circle cx="230.769" cy="128.846" r="5" transform="rotate(90 230.769 128.846)" fill="#F8F9FA"/>
<circle cx="251.539" cy="128.846" r="5" transform="rotate(90 251.539 128.846)" fill="#F8F9FA"/>
<circle cx="272.308" cy="128.846" r="5" transform="rotate(90 272.308 128.846)" fill="#F8F9FA"/>
<circle cx="293.077" cy="128.846" r="5" transform="rotate(90 293.077 128.846)" fill="#F8F9FA"/>
<circle cx="210" cy="104.23" r="5" transform="rotate(90 210 104.23)" fill="#F8F9FA"/>
<circle cx="230.769" cy="104.23" r="5" transform="rotate(90 230.769 104.23)" fill="#F8F9FA"/>
<circle cx="251.539" cy="104.23" r="5" transform="rotate(90 251.539 104.23)" fill="#F8F9FA"/>
<circle cx="272.308" cy="104.23" r="5" transform="rotate(90 272.308 104.23)" fill="#F8F9FA"/>
<circle cx="293.077" cy="104.23" r="5" transform="rotate(90 293.077 104.23)" fill="#F8F9FA"/>
<circle cx="106.923" cy="78.8462" r="5" transform="rotate(90 106.923 78.8462)" fill="#F8F9FA"/>
<circle cx="127.692" cy="78.8462" r="5" transform="rotate(90 127.692 78.8462)" fill="#F8F9FA"/>
<circle cx="148.461" cy="78.8462" r="5" transform="rotate(90 148.461 78.8462)" fill="#F8F9FA"/>
<circle cx="169.231" cy="78.8462" r="5" transform="rotate(90 169.231 78.8462)" fill="#F8F9FA"/>
<circle cx="190" cy="78.8462" r="5" transform="rotate(90 190 78.8462)" fill="#F8F9FA"/>
<circle cx="106.923" cy="54.231" r="5" transform="rotate(90 106.923 54.231)" fill="#F8F9FA"/>
<circle cx="127.692" cy="54.231" r="5" transform="rotate(90 127.692 54.231)" fill="#F8F9FA"/>
<circle cx="148.461" cy="54.231" r="5" transform="rotate(90 148.461 54.231)" fill="#F8F9FA"/>
<circle cx="169.231" cy="54.231" r="5" transform="rotate(90 169.231 54.231)" fill="#F8F9FA"/>
<circle cx="190" cy="54.231" r="5" transform="rotate(90 190 54.231)" fill="#F8F9FA"/>
<circle cx="106.923" cy="29.6152" r="5" transform="rotate(90 106.923 29.6152)" fill="#F8F9FA"/>
<circle cx="127.692" cy="29.6152" r="5" transform="rotate(90 127.692 29.6152)" fill="#F8F9FA"/>
<circle cx="148.461" cy="29.6152" r="5" transform="rotate(90 148.461 29.6152)" fill="#F8F9FA"/>
<circle cx="169.231" cy="29.6152" r="5" transform="rotate(90 169.231 29.6152)" fill="#F8F9FA"/>
<circle cx="190" cy="29.6152" r="5" transform="rotate(90 190 29.6152)" fill="#F8F9FA"/>
<circle cx="106.923" cy="5" r="5" transform="rotate(90 106.923 5)" fill="#F8F9FA"/>
<circle cx="127.692" cy="5" r="5" transform="rotate(90 127.692 5)" fill="#F8F9FA"/>
<circle cx="148.461" cy="5" r="5" transform="rotate(90 148.461 5)" fill="#F8F9FA"/>
<circle cx="169.231" cy="5" r="5" transform="rotate(90 169.231 5)" fill="#F8F9FA"/>
<circle cx="190" cy="5" r="5" transform="rotate(90 190 5)" fill="#F8F9FA"/>
<circle cx="106.923" cy="178.077" r="5" transform="rotate(90 106.923 178.077)" fill="#F8F9FA"/>
<circle cx="127.692" cy="178.077" r="5" transform="rotate(90 127.692 178.077)" fill="#F8F9FA"/>
<circle cx="148.461" cy="178.077" r="5" transform="rotate(90 148.461 178.077)" fill="#F8F9FA"/>
<circle cx="169.231" cy="178.077" r="5" transform="rotate(90 169.231 178.077)" fill="#F8F9FA"/>
<circle cx="190" cy="178.077" r="5" transform="rotate(90 190 178.077)" fill="#F8F9FA"/>
<circle cx="106.923" cy="153.461" r="5" transform="rotate(90 106.923 153.461)" fill="#F8F9FA"/>
<circle cx="127.692" cy="153.461" r="5" transform="rotate(90 127.692 153.461)" fill="#F8F9FA"/>
<circle cx="148.461" cy="153.461" r="5" transform="rotate(90 148.461 153.461)" fill="#F8F9FA"/>
<circle cx="169.231" cy="153.461" r="5" transform="rotate(90 169.231 153.461)" fill="#F8F9FA"/>
<circle cx="190" cy="153.461" r="5" transform="rotate(90 190 153.461)" fill="#F8F9FA"/>
<circle cx="106.923" cy="128.846" r="5" transform="rotate(90 106.923 128.846)" fill="#F8F9FA"/>
<circle cx="127.692" cy="128.846" r="5" transform="rotate(90 127.692 128.846)" fill="#F8F9FA"/>
<circle cx="148.461" cy="128.846" r="5" transform="rotate(90 148.461 128.846)" fill="#F8F9FA"/>
<circle cx="169.231" cy="128.846" r="5" transform="rotate(90 169.231 128.846)" fill="#F8F9FA"/>
<circle cx="190" cy="128.846" r="5" transform="rotate(90 190 128.846)" fill="#F8F9FA"/>
<circle cx="106.923" cy="104.23" r="5" transform="rotate(90 106.923 104.23)" fill="#F8F9FA"/>
<circle cx="127.692" cy="104.23" r="5" transform="rotate(90 127.692 104.23)" fill="#F8F9FA"/>
<circle cx="148.461" cy="104.23" r="5" transform="rotate(90 148.461 104.23)" fill="#F8F9FA"/>
<circle cx="169.231" cy="104.23" r="5" transform="rotate(90 169.231 104.23)" fill="#F8F9FA"/>
<circle cx="190" cy="104.23" r="5" transform="rotate(90 190 104.23)" fill="#F8F9FA"/>
<circle cx="5" cy="78.8462" r="5" transform="rotate(90 5 78.8462)" fill="#F8F9FA"/>
<circle cx="25.7693" cy="78.8462" r="5" transform="rotate(90 25.7693 78.8462)" fill="#F8F9FA"/>
<circle cx="46.5383" cy="78.8462" r="5" transform="rotate(90 46.5383 78.8462)" fill="#F8F9FA"/>
<circle cx="67.3076" cy="78.8462" r="5" transform="rotate(90 67.3076 78.8462)" fill="#F8F9FA"/>
<circle cx="88.0769" cy="78.8462" r="5" transform="rotate(90 88.0769 78.8462)" fill="#F8F9FA"/>
<circle cx="5" cy="54.231" r="5" transform="rotate(90 5 54.231)" fill="#F8F9FA"/>
<circle cx="25.7693" cy="54.231" r="5" transform="rotate(90 25.7693 54.231)" fill="#F8F9FA"/>
<circle cx="46.5383" cy="54.231" r="5" transform="rotate(90 46.5383 54.231)" fill="#F8F9FA"/>
<circle cx="67.3076" cy="54.231" r="5" transform="rotate(90 67.3076 54.231)" fill="#F8F9FA"/>
<circle cx="88.0769" cy="54.231" r="5" transform="rotate(90 88.0769 54.231)" fill="#F8F9FA"/>
<circle cx="5" cy="29.6152" r="5" transform="rotate(90 5 29.6152)" fill="#F8F9FA"/>
<circle cx="25.7693" cy="29.6152" r="5" transform="rotate(90 25.7693 29.6152)" fill="#F8F9FA"/>
<circle cx="46.5383" cy="29.6152" r="5" transform="rotate(90 46.5383 29.6152)" fill="#F8F9FA"/>
<circle cx="67.3076" cy="29.6152" r="5" transform="rotate(90 67.3076 29.6152)" fill="#F8F9FA"/>
<circle cx="88.0769" cy="29.6152" r="5" transform="rotate(90 88.0769 29.6152)" fill="#F8F9FA"/>
<circle cx="5" cy="5" r="5" transform="rotate(90 5 5)" fill="#F8F9FA"/>
<circle cx="25.7693" cy="5" r="5" transform="rotate(90 25.7693 5)" fill="#F8F9FA"/>
<circle cx="46.5383" cy="5" r="5" transform="rotate(90 46.5383 5)" fill="#F8F9FA"/>
<circle cx="67.3076" cy="5" r="5" transform="rotate(90 67.3076 5)" fill="#F8F9FA"/>
<circle cx="88.0769" cy="5" r="5" transform="rotate(90 88.0769 5)" fill="#F8F9FA"/>
<circle cx="5" cy="178.077" r="5" transform="rotate(90 5 178.077)" fill="#F8F9FA"/>
<circle cx="25.7693" cy="178.077" r="5" transform="rotate(90 25.7693 178.077)" fill="#F8F9FA"/>
<circle cx="46.5386" cy="178.077" r="5" transform="rotate(90 46.5386 178.077)" fill="#F8F9FA"/>
<circle cx="67.3076" cy="178.077" r="5" transform="rotate(90 67.3076 178.077)" fill="#F8F9FA"/>
<circle cx="88.0769" cy="178.077" r="5" transform="rotate(90 88.0769 178.077)" fill="#F8F9FA"/>
<circle cx="5" cy="153.461" r="5" transform="rotate(90 5 153.461)" fill="#F8F9FA"/>
<circle cx="25.7693" cy="153.461" r="5" transform="rotate(90 25.7693 153.461)" fill="#F8F9FA"/>
<circle cx="46.5386" cy="153.461" r="5" transform="rotate(90 46.5386 153.461)" fill="#F8F9FA"/>
<circle cx="67.3076" cy="153.461" r="5" transform="rotate(90 67.3076 153.461)" fill="#F8F9FA"/>
<circle cx="88.0769" cy="153.461" r="5" transform="rotate(90 88.0769 153.461)" fill="#F8F9FA"/>
<circle cx="5" cy="128.846" r="5" transform="rotate(90 5 128.846)" fill="#F8F9FA"/>
<circle cx="25.7693" cy="128.846" r="5" transform="rotate(90 25.7693 128.846)" fill="#F8F9FA"/>
<circle cx="46.5386" cy="128.846" r="5" transform="rotate(90 46.5386 128.846)" fill="#F8F9FA"/>
<circle cx="67.3076" cy="128.846" r="5" transform="rotate(90 67.3076 128.846)" fill="#F8F9FA"/>
<circle cx="88.0769" cy="128.846" r="5" transform="rotate(90 88.0769 128.846)" fill="#F8F9FA"/>
<circle cx="5" cy="104.23" r="5" transform="rotate(90 5 104.23)" fill="#F8F9FA"/>
<circle cx="25.7693" cy="104.23" r="5" transform="rotate(90 25.7693 104.23)" fill="#F8F9FA"/>
<circle cx="46.5386" cy="104.23" r="5" transform="rotate(90 46.5386 104.23)" fill="#F8F9FA"/>
<circle cx="67.3076" cy="104.23" r="5" transform="rotate(90 67.3076 104.23)" fill="#F8F9FA"/>
<circle cx="88.0769" cy="104.23" r="5" transform="rotate(90 88.0769 104.23)" fill="#F8F9FA"/>
</svg>
