<svg fill="none" height="512" viewBox="0 0 512 512" width="512" xmlns="http://www.w3.org/2000/svg"><rect fill="#222" height="512" rx="30" width="512"/><path d="m419.64 379.04-5.76-5.76-10.56 8.16c-10.56-10.08-18.72-24.48-24.96-42.72-8.64-25.44-15.36-42.24-20.16-50.4-12-19.68-29.76-36.48-54.24-51.36l67.2-48-24.48-33.6c-17.28-23.52-31.2-42.24-41.28-55.2l-85.44 56.64c-3.36-32.64-23.52-54.72-55.68-54.72-22.08 0-42.72 8.16-61.44 24v6.24c12.96-3.36 23.04-5.28 30.72-5.28 26.88 0 39.84 14.88 39.36 44.64l-.48 20.64-77.76 58.08c52.8 25.92 79.2 59.52 79.2 100.8-35.52 11.04-64.32 31.2-86.88 60.96l.48 2.4c36.96-13.92 67.68-20.64 93.12-20.64 6.24 0 12.48.48 17.76.96 12.96 1.44 26.88 5.76 40.8 13.44 5.28 2.88 13.92 8.16 26.88 15.84l48.96-49.44-6.24-6.24-10.08 9.12c-13.92-8.16-28.8-14.88-44.16-20.16v-83.04c22.08 0 39.84 9.6 52.8 29.28 4.8 7.2 13.92 27.84 27.84 61.92 11.04 27.36 23.04 45.6 36 55.68h4.8zm-96-168-69.12 50.88v-116.64l14.88-10.08zm-79.2 143.04c-6.72-1.92-13.92-2.88-21.6-2.88v-183.84l21.6-14.4zm-72.48-96-36-28.8 36-24z" fill="#fff"/></svg>
