<svg width="86" height="25" viewBox="0 0 86 25" fill="none" xmlns="http://www.w3.org/2000/svg">
<g opacity="0.5">
<path d="M53.3056 19.5442C48.312 23.0904 41.0576 24.9996 34.8395 24.9996C26.1002 24.9996 18.2327 21.8861 12.2733 16.6803C11.803 16.2719 12.2263 15.7257 12.7923 16.0434C19.2221 19.6576 27.1601 21.8165 35.382 21.8165C40.9182 21.8165 46.9951 20.703 52.6002 18.4064C53.4232 18.0677 54.1538 18.9542 53.3056 19.5442Z" fill="#495057"/>
<path d="M55.4018 17.2497C54.7652 16.4539 51.1859 16.8867 49.56 17.0682C49.0662 17.1363 48.994 16.7052 49.4424 16.4086C52.2928 14.4766 56.9807 15.0228 57.5216 15.6808C58.0641 16.3405 57.3805 20.8624 54.6947 23.0228C54.2949 23.3632 53.8935 23.1817 54.0816 22.7278C54.6729 21.2951 56.0384 18.0455 55.4018 17.2497Z" fill="#495057"/>
<path d="M49.6792 2.72633V0.839781C49.6792 0.544805 49.9144 0.363281 50.173 0.363281H58.9123C59.1944 0.363281 59.4061 0.567496 59.4061 0.839781V2.45404C59.4061 2.72633 59.1709 3.06831 58.746 3.63557L54.2227 9.88516C55.8956 9.83978 57.6844 10.0894 59.2163 10.9079C59.569 11.0894 59.6631 11.3617 59.6866 11.6356V13.6356C59.6866 13.9079 59.3809 14.2271 59.05 14.0667C56.3642 12.7036 52.7849 12.5659 49.8169 14.0894C49.5112 14.2482 49.2039 13.9305 49.2039 13.6583V11.749C49.2039 11.4314 49.2039 10.9079 49.5331 10.454L54.7854 3.18014H50.215C49.8908 3.20283 49.6792 3.0213 49.6792 2.72633Z" fill="#495057"/>
<path d="M17.7624 14.4994H15.1002C14.8415 14.4767 14.6534 14.2952 14.6299 14.0683V0.885169C14.6299 0.612884 14.865 0.408669 15.1489 0.408669H17.6213C17.88 0.408669 18.0917 0.612884 18.0917 0.839788V2.5675H18.1387C18.7753 0.90786 19.9997 0.134766 21.6492 0.134766C23.3221 0.134766 24.3584 0.90786 25.1109 2.5675C25.7475 0.90786 27.2071 0.134766 28.786 0.134766C29.8929 0.134766 31.1174 0.588572 31.8715 1.56588C32.7198 2.67933 32.5316 4.2936 32.5316 5.70202V14.0213C32.5316 14.2936 32.2965 14.4978 32.0126 14.4978H29.3504C29.0917 14.4751 28.8801 14.2709 28.8801 14.0213V7.044C28.8801 6.49781 28.9271 5.11207 28.8095 4.56588C28.6214 3.67933 28.0083 3.42974 27.2542 3.42974C26.6176 3.42974 25.9356 3.83817 25.6518 4.5205C25.3696 5.18014 25.4166 6.29359 25.4166 7.044V14.0213C25.4166 14.2936 25.1815 14.4978 24.8976 14.4978H22.2354C21.9767 14.4751 21.7651 14.2709 21.7651 14.0213V7.044C21.7651 5.56588 22.0237 3.40705 20.1156 3.40705C18.2075 3.40705 18.2781 5.5205 18.2781 7.044V14.0213C18.2798 14.2725 18.0446 14.4994 17.7624 14.4994Z" fill="#495057"/>
<path d="M66.9444 0.134766C70.9016 0.134766 73.0214 3.40705 73.0214 7.5675C73.0214 11.5902 70.6665 14.7717 66.9444 14.7717C63.0576 14.7717 60.9614 11.4994 60.9614 7.42974C60.9614 3.31629 63.1047 0.134766 66.9444 0.134766ZM66.9679 2.8171C65.0128 2.8171 64.8952 5.38598 64.8952 6.99862C64.8952 8.61288 64.8717 12.044 66.9679 12.044C69.0406 12.044 69.1346 9.27091 69.1346 7.58857C69.1346 6.47512 69.0876 5.15584 68.7349 4.08776C68.404 3.18015 67.8161 2.8171 66.9679 2.8171Z" fill="#495057"/>
<path d="M78.1559 14.4994H75.5172C75.2585 14.4767 75.0469 14.2725 75.0469 14.0229V0.839788C75.0704 0.590193 75.282 0.408669 75.5659 0.408669H78.0383C78.2735 0.408669 78.4616 0.567503 78.5086 0.771717V2.79441H78.5557C79.3098 0.998621 80.3462 0.134766 82.1837 0.134766C83.3847 0.134766 84.5386 0.543192 85.2928 1.68096C85.9999 2.72634 85.9999 4.49943 85.9999 5.77172V14.0683C85.9764 14.2952 85.7412 14.4767 85.4809 14.4767H82.7716C82.5365 14.454 82.3248 14.2952 82.3013 14.0683V6.90786C82.3013 5.47674 82.4659 3.36167 80.6284 3.36167C79.9918 3.36167 79.3804 3.7701 79.0965 4.40705C78.7203 5.20283 78.6732 6.02131 78.6732 6.90786V13.9986C78.6749 14.2725 78.4381 14.4994 78.1559 14.4994Z" fill="#495057"/>
<path d="M47.4403 12.0681C46.9464 11.4084 46.4274 10.8865 46.4274 9.68233V5.68233C46.4274 3.97731 46.545 2.43274 45.25 1.27228C44.2372 0.317665 42.5407 0 41.2457 0C38.7245 0 35.8758 0.909237 35.2863 3.93193C35.2157 4.24959 35.4744 4.43274 35.686 4.47812L38.2542 4.7504C38.4894 4.7504 38.6775 4.5235 38.7245 4.27391C38.9362 3.22852 39.8549 2.72772 40.8678 2.72772C41.4103 2.72772 42.0452 2.93193 42.3509 3.38736C42.7271 3.91086 42.6801 4.63695 42.6801 5.25121V5.59157C41.1483 5.7504 39.1226 5.86386 37.6865 6.47812C36.0135 7.18314 34.8596 8.59157 34.8596 10.6823C34.8596 13.342 36.6031 14.6823 38.8404 14.6823C40.725 14.6823 41.7613 14.2512 43.221 12.8185C43.6913 13.5008 43.8575 13.8185 44.7528 14.5235C44.9409 14.6143 45.1996 14.6143 45.3894 14.4554C45.9319 14.0016 46.8977 13.1831 47.4386 12.7504C47.6536 12.5899 47.6065 12.295 47.4403 12.0681ZM42.2115 10.9076C41.7882 11.6353 41.1046 12.0665 40.3739 12.0665C39.3611 12.0665 38.748 11.316 38.748 10.2026C38.748 8.02107 40.7737 7.61102 42.7053 7.61102V8.15721C42.707 9.20421 42.7305 10.0211 42.2115 10.9076Z" fill="#495057"/>
<path d="M12.5571 12.0681C12.0633 11.4084 11.5443 10.8865 11.5443 9.68233V5.68233C11.5443 3.97731 11.6618 2.43274 10.3668 1.27228C9.354 0.317665 7.65755 0 6.36253 0C3.84137 0 1.01619 0.909237 0.403117 3.93193C0.332572 4.24959 0.591238 4.43274 0.802875 4.47812L3.39458 4.7504C3.62973 4.7504 3.81785 4.5235 3.86489 4.27391C4.07652 3.22852 4.99529 2.72772 6.00812 2.72772C6.55065 2.72772 7.18556 2.93193 7.49126 3.38736C7.8675 3.91086 7.82047 4.63695 7.82047 5.25121V5.59157C6.28863 5.7504 4.26296 5.86386 2.82686 6.47812C1.15392 7.18314 0 8.59157 0 10.6823C0 13.342 1.74348 14.6823 3.98078 14.6823C5.86535 14.6823 6.9017 14.2512 8.36132 12.8185C8.85514 13.5008 8.99791 13.8185 9.89317 14.5235C10.0813 14.6143 10.34 14.6143 10.5298 14.4554C11.0723 14.0016 12.0381 13.1831 12.5789 12.7504C12.7687 12.5899 12.7217 12.295 12.5571 12.0681ZM7.32665 10.9076C6.90338 11.6353 6.24328 12.0665 5.48911 12.0665C4.47628 12.0665 3.86321 11.316 3.86321 10.2026C3.86321 8.02107 5.88887 7.61102 7.82047 7.61102V8.15721C7.82215 9.20421 7.84567 10.0211 7.32665 10.9076Z" fill="#495057"/>
</g>
</svg>
