<svg width="46" height="48" viewBox="0 0 46 48" fill="none" xmlns="http://www.w3.org/2000/svg">
<g opacity="0.5">
<path d="M10.3346 19.5281C12.1643 13.875 17.3684 9.81562 23.5471 9.81562C26.8663 9.81562 29.8545 11.0156 32.2175 12.975L39.049 6C34.8839 2.2875 29.5327 0 23.5379 0C14.2606 0 6.27062 5.4 2.43652 13.3031L10.3346 19.5281Z" fill="#495057"/>
<path d="M31.4634 36.0277C29.3211 37.434 26.6087 38.184 23.5378 38.184C17.3867 38.184 12.201 34.1527 10.3529 28.5371L2.42725 34.6684C6.26135 42.5902 14.2514 47.9996 23.5378 47.9996C29.2935 47.9996 34.7918 45.9184 38.9018 41.9996L31.4634 36.0277Z" fill="#495057"/>
<path d="M38.9018 42C43.2049 37.9031 46 31.8094 46 24C46 22.5844 45.7885 21.0563 45.4667 19.6406H23.5378V28.9125H36.1619C35.5367 32.0344 33.8633 34.4437 31.4635 36.0281L38.9018 42Z" fill="#495057"/>
<path d="M10.353 28.5371C9.88407 27.1121 9.62662 25.5934 9.62662 23.9996C9.62662 22.434 9.87487 20.934 10.3254 19.5277L2.42734 13.3027C0.855087 16.5184 0 20.1465 0 23.9996C0 27.834 0.873476 31.4621 2.42734 34.6684L10.353 28.5371Z" fill="#495057"/>
</g>
</svg>
