<svg width="83" height="47" viewBox="0 0 83 47" fill="none" xmlns="http://www.w3.org/2000/svg">
<g opacity="0.5">
<path d="M22.4731 19.6182V17.4133H18.5322V30.936H22.5688V23.4413C23.261 21.8758 24.4281 21.093 26.0703 21.0914C26.5502 21.0897 27.0284 21.1375 27.4969 21.2348V17.3523C27.15 17.2238 26.7301 17.1611 26.234 17.1611C24.8658 17.1611 23.6127 17.9801 22.4731 19.6182Z" fill="#495057"/>
<path d="M40.4106 29.152C41.7123 27.8056 42.3624 26.1429 42.3624 24.1605C42.3624 22.1945 41.7123 20.5367 40.4106 19.1854C39.1088 17.8342 37.4942 17.1602 35.5635 17.1602C33.6328 17.1602 32.0198 17.8391 30.7229 19.1953C29.426 20.5516 28.7776 22.2077 28.7776 24.1605C28.7776 26.1132 29.426 27.771 30.7229 29.1306C32.0198 30.4917 33.6328 31.1707 35.5635 31.1723C37.4942 31.174 39.1104 30.5 40.4106 29.152ZM33.4301 26.4956C32.8757 25.8611 32.5985 25.0833 32.5985 24.1621C32.5985 23.2558 32.8757 22.4846 33.4301 21.8468C33.9845 21.2091 34.6962 20.8894 35.5651 20.8894C36.434 20.8894 37.1473 21.2091 37.705 21.8468C38.2642 22.4846 38.5431 23.2574 38.5414 24.1621C38.5414 25.0751 38.2626 25.8512 37.705 26.489C37.1473 27.1267 36.434 27.4464 35.5651 27.4464C34.6962 27.4464 33.9845 27.13 33.4301 26.4956Z" fill="#495057"/>
<path d="M65.8974 17.1611C64.0267 17.1611 62.4429 17.8252 61.146 19.1518C59.8491 20.4784 59.2007 22.1493 59.2007 24.1614C59.2007 26.2246 59.8216 27.9088 61.0633 29.2139C62.3051 30.5191 63.9327 31.1716 65.9444 31.1733C67.2964 31.1733 68.4523 30.9162 69.412 30.4037C70.4105 29.8599 71.3038 29.1398 72.0527 28.2763L69.1283 26.6135C68.3745 27.3139 67.3904 27.6632 66.1811 27.6632C64.4433 27.6632 63.422 26.8805 63.1156 25.3133H72.2667C72.2683 25.2029 72.2764 25.0925 72.291 24.9838C72.3072 24.8437 72.3186 24.7168 72.3267 24.5998C72.3348 24.4844 72.338 24.3872 72.338 24.3065C72.338 22.324 71.7366 20.6382 70.5337 19.249C69.3293 17.8598 67.7844 17.1628 65.8974 17.1611ZM63.161 22.8794C63.3572 22.1296 63.6911 21.5495 64.1628 21.1425C64.62 20.7404 65.2085 20.5229 65.8131 20.5311C66.4113 20.5311 66.9511 20.7684 67.4342 21.2414C67.9173 21.7143 68.2075 22.2614 68.3015 22.881L63.161 22.8794Z" fill="#495057"/>
<path d="M81.7388 17.1611C80.3706 17.1611 79.1175 17.9801 77.9778 19.6182V17.4116H74.0386V30.9344H78.0719V23.4397C78.7641 21.8742 79.9312 21.0914 81.5734 21.0898C82.0533 21.0881 82.5315 21.1359 83 21.2331V17.3523C82.6514 17.2254 82.2316 17.1611 81.7388 17.1611Z" fill="#495057"/>
<path d="M14.6466 14.8625C14.7066 14.3978 14.7422 13.9298 14.7536 13.4601H14.7584C14.7584 8.17033 18.9944 3.86599 24.1964 3.86599C29.3985 3.86599 33.6345 8.17198 33.6345 13.4601H37.4375C37.4375 6.03794 31.4979 0 24.1964 0C16.9712 0 11.0818 5.91434 10.9602 13.2294H10.9537C10.9505 13.6101 10.9246 13.9907 10.8743 14.3681C10.7008 15.7425 10.1967 17.7233 8.78146 19.3563C7.67588 20.6351 6.16178 21.5003 4.26672 21.9501V12.9657H0V30.9345H4.26834V25.9002C5.52145 25.686 6.74213 25.302 7.89473 24.7565L11.7448 30.9345H16.8513L11.218 22.3654C11.3606 22.2171 11.5017 22.0655 11.6378 21.9089C13.6869 19.5426 14.405 16.7724 14.6466 14.8625Z" fill="#495057"/>
<path d="M57.4954 34.888V17.4136H53.6518V18.5655C52.7472 17.6311 51.6043 17.1631 50.2215 17.1631C48.5145 17.1631 47.0377 17.8157 45.7878 19.1192C44.538 20.4243 43.9122 22.0409 43.9122 23.9722C43.9122 25.8937 44.5526 27.4938 45.8316 28.7759C47.1107 30.058 48.5729 30.6974 50.2183 30.6974C51.5541 30.6891 52.7132 30.315 53.6972 29.5751C53.6972 29.6015 53.6972 33.6504 53.6972 34.8896C53.6566 39.4445 49.9913 43.1028 45.5123 43.0616C41.0899 43.0204 37.5138 39.3868 37.4733 34.8896H33.6702C33.6702 41.5686 39.0149 47.0001 45.5836 47.0001C52.0355 47.0001 57.3025 41.7598 57.4905 35.2456H57.4954V35.061C57.4954 35.0017 57.5002 34.9457 57.5002 34.8863L57.4954 34.888ZM52.8558 26.2628C52.3095 26.8759 51.5914 27.1824 50.703 27.1824C49.8309 27.1824 49.116 26.8759 48.5632 26.2628C48.0104 25.6498 47.7315 24.8885 47.7315 23.9755C47.7315 23.0642 48.0087 22.3013 48.5632 21.6882C49.1176 21.0752 49.8309 20.7687 50.703 20.7687C51.5833 20.7687 52.2982 21.0752 52.8493 21.6882C53.4005 22.3013 53.6745 23.0642 53.6745 23.9755C53.6761 24.8868 53.4021 25.6498 52.8558 26.2628Z" fill="#495057"/>
<path d="M60.4652 41.1874C60.4473 42.0081 59.7794 42.659 58.9738 42.6409C58.1908 42.6244 57.5602 41.9833 57.5439 41.1874C57.5439 40.3849 58.194 39.7422 59.0094 39.7422C59.8232 39.7405 60.4652 40.3865 60.4652 41.1874ZM57.9087 41.1874C57.9087 41.8301 58.3772 42.3426 59.0191 42.3426C59.6433 42.3426 60.1037 41.8317 60.1037 41.1989C60.1037 40.5661 59.6449 40.0355 59.011 40.0355C58.3756 40.0339 57.9087 40.553 57.9087 41.1874ZM58.7841 41.9454H58.4534V40.5002C58.6333 40.4689 58.8165 40.4541 58.9997 40.4557C59.2688 40.4557 59.3904 40.5002 59.4941 40.5612C59.5849 40.6403 59.6368 40.7573 59.6335 40.8792C59.6335 41.0374 59.512 41.161 59.3385 41.2154V41.2335C59.4763 41.2863 59.5557 41.3917 59.5979 41.5862C59.6416 41.8054 59.6643 41.8944 59.7016 41.9471H59.3466C59.3028 41.8944 59.2801 41.7625 59.2347 41.5944C59.2088 41.4362 59.1229 41.3654 58.9397 41.3654H58.7841V41.9454ZM58.7922 41.1248H58.9478C59.1294 41.1248 59.2785 41.0622 59.2785 40.9139C59.2785 40.7787 59.1829 40.693 58.9754 40.693C58.9138 40.6914 58.8538 40.698 58.7938 40.7112L58.7922 41.1248Z" fill="#495057"/>
</g>
</svg>
