<svg width="160" height="44" viewBox="0 0 160 44" fill="none" xmlns="http://www.w3.org/2000/svg">
<g opacity="0.5">
<path d="M62.0469 16.8203C59.9937 16.8203 58.9749 18.4727 58.5093 19.5401C58.2499 20.1346 58.1749 20.6076 57.9655 20.6076C57.6687 20.6076 57.8812 20.1985 57.6374 19.2908C57.3155 18.0955 56.3499 16.8203 54.2967 16.8203C52.1404 16.8203 51.2153 18.6868 50.7747 19.7095C50.4747 20.4095 50.4747 20.6044 50.2434 20.6044C49.909 20.6044 50.1872 20.0483 50.3372 19.3931C50.6341 18.1051 50.409 17.1207 50.409 17.1207H46.9871V30.2788H51.656C51.656 30.2788 51.656 24.7784 51.656 23.7333C51.656 22.4421 52.1841 20.8026 53.0904 20.8026C54.1373 20.8026 54.3467 21.6239 54.3467 23.1453C54.3467 24.5259 54.3467 30.282 54.3467 30.282H59.0343C59.0343 30.282 59.0343 24.7497 59.0343 23.7333C59.0343 22.5828 59.4937 20.8026 60.475 20.8026C61.5344 20.8026 61.7219 21.9563 61.7219 23.1453C61.7219 24.3342 61.7219 30.2788 61.7219 30.2788H66.3252C66.3252 30.2788 66.3252 25.0661 66.3252 22.5412C66.3283 19.1087 65.1439 16.8203 62.0469 16.8203Z" fill="#495057"/>
<path d="M141.309 16.8203C139.255 16.8203 138.237 18.4727 137.771 19.5401C137.512 20.1346 137.437 20.6076 137.227 20.6076C136.93 20.6076 137.127 20.0867 136.899 19.2908C136.555 18.1019 135.705 16.8203 133.558 16.8203C131.399 16.8203 130.477 18.6868 130.036 19.7095C129.736 20.4095 129.736 20.6044 129.505 20.6044C129.171 20.6044 129.449 20.0483 129.599 19.3931C129.896 18.1051 129.671 17.1207 129.671 17.1207H126.252V30.2788H130.924C130.924 30.2788 130.924 24.7784 130.924 23.7333C130.924 22.4421 131.452 20.8026 132.358 20.8026C133.405 20.8026 133.615 21.6239 133.615 23.1453C133.615 24.5259 133.615 30.282 133.615 30.282H138.302C138.302 30.282 138.302 24.7497 138.302 23.7333C138.302 22.5828 138.762 20.8026 139.743 20.8026C140.802 20.8026 140.993 21.9563 140.993 23.1453C140.993 24.3342 140.993 30.2788 140.993 30.2788H145.596C145.596 30.2788 145.596 25.0661 145.596 22.5412C145.59 19.1087 144.409 16.8203 141.309 16.8203Z" fill="#495057"/>
<path d="M73.166 27.2049C72.0503 27.467 71.469 27.1186 71.469 26.3612C71.469 25.3257 72.5191 24.907 74.016 24.907C74.6754 24.907 75.2973 24.9645 75.2973 24.9645C75.2973 25.4088 74.3535 26.9237 73.166 27.2049ZM74.3035 16.8242C70.7253 16.8242 68.1595 18.1697 68.1595 18.1697V22.1232C68.1595 22.1232 70.994 20.4549 73.2941 20.4549C75.1285 20.4549 75.3567 21.468 75.2723 22.3086C75.2723 22.3086 74.7441 22.1648 73.1285 22.1648C69.3221 22.1648 67.4001 23.9354 67.4001 26.7703C67.4001 29.4613 69.5596 30.5863 71.3784 30.5863C74.0347 30.5863 75.2004 28.7614 75.5598 27.8953C75.8098 27.2944 75.8535 26.8917 76.0786 26.8917C76.3348 26.8917 76.2473 27.1825 76.2348 27.7802C76.2129 28.8285 76.2629 29.6179 76.4223 30.2859H79.9412V23.8107C79.9381 19.7646 78.5411 16.8242 74.3035 16.8242Z" fill="#495057"/>
<path d="M92.3041 13.1387H87.6321V30.2822H92.3041V13.1387Z" fill="#495057"/>
<path d="M97.4417 23.7046C97.4417 22.522 98.5167 21.445 100.489 21.445C102.639 21.445 104.367 22.5029 104.754 22.7426V18.1658C104.754 18.1658 103.389 16.8203 100.032 16.8203C96.4917 16.8203 93.5447 18.9393 93.5447 23.4968C93.5447 28.0544 96.2198 30.5824 100.023 30.5824C102.992 30.5824 104.764 28.9141 104.764 28.9141V24.5675C104.204 24.8871 102.642 25.9961 100.511 25.9961C98.2542 25.9993 97.4417 24.935 97.4417 23.7046Z" fill="#495057"/>
<path d="M114.214 16.8234C111.511 16.8234 110.483 19.4442 110.274 19.898C110.064 20.3518 109.964 20.6139 109.792 20.6107C109.498 20.6011 109.702 20.0514 109.817 19.6967C110.036 19.0255 110.495 17.2645 110.495 15.1008C110.495 13.6338 110.302 13.1416 110.302 13.1416H106.27V30.2851H110.939C110.939 30.2851 110.939 24.8039 110.939 23.7396C110.939 22.6754 111.355 20.8089 112.533 20.8089C113.508 20.8089 113.814 21.5472 113.814 23.0333C113.814 24.5195 113.814 30.2851 113.814 30.2851H118.483C118.483 30.2851 118.483 26.2741 118.483 23.321C118.486 19.9396 117.939 16.8234 114.214 16.8234Z" fill="#495057"/>
<path d="M120.005 17.1406V30.2827H124.674V17.1406C124.674 17.1406 123.889 17.6104 122.342 17.6104C120.799 17.6104 120.005 17.1406 120.005 17.1406Z" fill="#495057"/>
<path d="M122.324 13.0078C120.746 13.0078 119.464 13.8612 119.464 14.9158C119.464 15.9705 120.746 16.8239 122.324 16.8239C123.902 16.8239 125.183 15.9705 125.183 14.9158C125.183 13.8612 123.902 13.0078 122.324 13.0078Z" fill="#495057"/>
<path d="M81.4507 17.1406V30.2827H86.1196V17.1406C86.1196 17.1406 85.3352 17.6104 83.7883 17.6104C82.2445 17.6104 81.4507 17.1406 81.4507 17.1406Z" fill="#495057"/>
<path d="M83.7726 13.0078C82.1944 13.0078 80.9131 13.8612 80.9131 14.9158C80.9131 15.9705 82.1944 16.8239 83.7726 16.8239C85.3507 16.8239 86.632 15.9705 86.632 14.9158C86.6289 13.8612 85.3507 13.0078 83.7726 13.0078Z" fill="#495057"/>
<path d="M153.587 27.4535C152.515 27.4535 151.728 26.0632 151.728 24.1296C151.728 22.2504 152.537 20.8058 153.55 20.8058C154.85 20.8058 155.403 22.0235 155.403 24.1296C155.403 26.3189 154.894 27.4535 153.587 27.4535ZM154.869 16.8203C152.469 16.8203 151.369 18.6612 150.89 19.7095C150.575 20.4031 150.59 20.6044 150.359 20.6044C150.025 20.6044 150.303 20.0483 150.453 19.3931C150.75 18.1051 150.525 17.1207 150.525 17.1207H147.103V33.9127H151.772C151.772 33.9127 151.772 31.1641 151.772 28.5881C152.325 29.5469 153.347 30.5696 154.925 30.5696C158.3 30.5696 160 27.6485 160 23.6982C160.003 19.2269 157.969 16.8203 154.869 16.8203Z" fill="#495057"/>
<path d="M30.4928 20.7936C30.8053 20.7553 31.1085 20.7553 31.3835 20.7936C31.5429 20.4197 31.571 19.7709 31.4272 19.0678C31.2147 18.0195 30.9241 17.3867 30.3241 17.4857C29.7272 17.5848 29.7022 18.3423 29.9178 19.3906C30.0397 19.9786 30.2522 20.4836 30.4928 20.7936Z" fill="#495057"/>
<path d="M25.3551 21.6206C25.7832 21.8124 26.0457 21.9403 26.1489 21.8284C26.2145 21.7581 26.1958 21.627 26.0926 21.4545C25.8832 21.1029 25.4457 20.7449 24.9863 20.5436C24.0426 20.1281 22.9175 20.2655 22.0519 20.9047C21.7644 21.1189 21.4925 21.4161 21.5331 21.5983C21.5456 21.6558 21.5894 21.7005 21.6894 21.7133C21.9269 21.7421 22.7519 21.3138 23.7019 21.2563C24.3707 21.2148 24.927 21.4289 25.3551 21.6206Z" fill="#495057"/>
<path d="M24.4926 22.126C23.9364 22.2155 23.627 22.404 23.4301 22.5798C23.2613 22.73 23.1582 22.8962 23.1582 23.0145C23.1582 23.0688 23.1832 23.1008 23.202 23.1199L23.2926 23.1551C23.4176 23.1551 23.702 23.04 23.702 23.04C24.477 22.7556 24.9895 22.7908 25.4958 22.8483C25.777 22.8802 25.9083 22.8962 25.9708 22.8003C25.9895 22.7716 26.0114 22.7109 25.9552 22.6182C25.8239 22.3976 25.2614 22.0301 24.4926 22.126Z" fill="#495057"/>
<path d="M28.7584 23.9704C29.1365 24.1621 29.5521 24.0854 29.6897 23.8042C29.824 23.5229 29.6271 23.1394 29.249 22.9476C28.8709 22.7559 28.4552 22.8326 28.3177 23.1138C28.1802 23.3951 28.3771 23.7786 28.7584 23.9704Z" fill="#495057"/>
<path d="M31.1897 21.794C30.8835 21.7876 30.6272 22.136 30.621 22.5643C30.6147 22.9957 30.8585 23.3505 31.1647 23.3569C31.471 23.3633 31.7273 23.0149 31.7335 22.5866C31.7429 22.1552 31.4991 21.8004 31.1897 21.794Z" fill="#495057"/>
<path d="M10.5327 29.5726C10.4577 29.4735 10.3295 29.5055 10.2076 29.5343C10.1233 29.5566 10.0264 29.579 9.92013 29.5758C9.69513 29.5694 9.50137 29.4735 9.39512 29.3041C9.25449 29.0836 9.26386 28.7576 9.41699 28.3805C9.43887 28.3294 9.46387 28.2718 9.48887 28.2111C9.73575 27.6454 10.1483 26.6962 9.68575 25.7949C9.33574 25.1141 8.76697 24.6923 8.08258 24.6028C7.42631 24.5165 6.74816 24.7658 6.31689 25.2548C5.63562 26.0218 5.52937 27.0669 5.66062 27.4377C5.7075 27.5719 5.78563 27.6103 5.83875 27.6166C5.95438 27.6326 6.12626 27.5463 6.23252 27.2523L6.26377 27.1564C6.31064 26.9998 6.40127 26.709 6.54503 26.4789C6.72003 26.1976 6.99504 26.0058 7.31693 25.9355C7.64506 25.8652 7.97945 25.9291 8.25758 26.1145C8.73572 26.4341 8.91698 27.0318 8.71385 27.6007C8.60759 27.8947 8.43884 28.4572 8.47634 28.9238C8.55134 29.8603 9.11698 30.2374 9.62325 30.2757C10.117 30.2949 10.4608 30.0137 10.5483 29.8059C10.6045 29.6781 10.5608 29.6046 10.5327 29.5726Z" fill="#495057"/>
<path d="M15.2141 12.359C16.8204 10.4606 18.7986 8.81141 20.5674 7.88456C20.6299 7.8526 20.6924 7.91972 20.6612 7.98045C20.5205 8.24252 20.2487 8.79863 20.1643 9.2205C20.1518 9.28442 20.2205 9.33556 20.2768 9.29721C21.3799 8.53016 23.2956 7.70559 24.9769 7.60012C25.0488 7.59692 25.0832 7.68961 25.0269 7.73435C24.7707 7.9357 24.4925 8.21376 24.2863 8.49501C24.2519 8.54295 24.2832 8.61326 24.3425 8.61326C25.5238 8.62285 27.1864 9.04472 28.2708 9.66795C28.3458 9.7095 28.2927 9.85651 28.2114 9.83734C26.5707 9.45381 23.8831 9.15978 21.0924 9.85651C18.6017 10.4765 16.6985 11.4385 15.311 12.4677C15.2422 12.5188 15.1579 12.4261 15.2141 12.359ZM23.2112 30.7458V30.749V30.7458ZM29.8365 31.5448C29.8833 31.5256 29.9177 31.4681 29.9115 31.4137C29.9052 31.3466 29.8458 31.2955 29.7802 31.3019C29.7802 31.3019 26.352 31.8196 23.1144 30.6083C23.4675 29.4354 24.405 29.8605 25.8238 29.9755C28.3802 30.1321 30.6677 29.7486 32.3615 29.2532C33.8272 28.8218 35.7554 27.9748 37.2492 26.7667C37.7523 27.9013 37.9336 29.1477 37.9336 29.1477C37.9336 29.1477 38.3242 29.0774 38.6492 29.282C38.9586 29.4769 39.1836 29.8796 39.0305 30.9215C38.7149 32.8711 37.9055 34.4532 36.5429 35.9074C35.7148 36.8182 34.7085 37.614 33.5553 38.1893C32.9428 38.5185 32.2928 38.803 31.6053 39.0331C26.4739 40.7461 21.2206 38.8637 19.5268 34.8143C19.3924 34.5107 19.2767 34.1911 19.1861 33.8587C18.4642 31.19 19.0767 27.9908 20.9924 25.9773C21.1112 25.8494 21.2299 25.696 21.2299 25.5075C21.2299 25.3477 21.1299 25.1815 21.0456 25.06C20.3768 24.0661 18.0548 22.3722 18.5205 19.0962C18.8549 16.7408 20.8705 15.082 22.7456 15.1811C22.905 15.1875 23.0644 15.2003 23.2206 15.2099C24.0331 15.2578 24.7457 15.3665 25.4144 15.3952C26.5364 15.4464 27.5426 15.277 28.7364 14.2606C29.1396 13.9187 29.4614 13.6182 30.0083 13.5256C30.0646 13.516 30.2083 13.4616 30.4959 13.4776C30.7865 13.4936 31.0646 13.5767 31.3146 13.7461C32.2709 14.3981 32.4084 15.9737 32.4584 17.1307C32.4865 17.7891 32.5647 19.3839 32.5897 19.8409C32.6522 20.886 32.9209 21.0362 33.4647 21.2184C33.771 21.3207 34.0553 21.3974 34.4741 21.5188C35.7398 21.8832 36.4929 22.2507 36.9648 22.7269C37.2461 23.0242 37.3805 23.3374 37.4211 23.6378C37.5711 24.7532 36.5742 26.1307 33.9397 27.3803C31.0584 28.7482 27.5645 29.0934 25.1488 28.8186C24.9644 28.7962 24.305 28.7195 24.3019 28.7195C22.3706 28.4542 21.2674 31.0046 22.4268 32.7561C23.1737 33.8843 25.2082 34.6162 27.2458 34.6162C31.9147 34.6162 35.5023 32.5771 36.8367 30.8161C36.8773 30.7617 36.8804 30.7585 36.9429 30.6595C37.0086 30.5572 36.9554 30.5029 36.8711 30.5604C35.7804 31.3242 30.9365 34.3541 25.7551 33.44C25.7551 33.44 25.1269 33.3345 24.5519 33.1044C24.0957 32.9223 23.1394 32.4716 23.0237 31.4713C27.202 32.7976 29.8365 31.5448 29.8365 31.5448ZM6.8701 21.3846C5.41693 21.6722 4.13564 22.516 3.35124 23.6825C2.88247 23.283 2.01057 22.5096 1.85744 22.2092C0.607399 19.7802 3.22311 15.0565 5.05129 12.3878C9.57019 5.79436 16.6454 0.805354 19.9205 1.70983C20.4549 1.86324 22.2175 3.95344 22.2175 3.95344C22.2175 3.95344 18.9424 5.81034 15.9079 8.40232C11.8109 11.6207 8.72328 16.3029 6.8701 21.3846ZM9.31393 32.5324C9.09517 32.5707 8.87016 32.5867 8.64203 32.5803C6.45446 32.5196 4.09189 30.5061 3.8575 28.1154C3.59812 25.4755 4.91691 23.4428 7.25136 22.9602C7.53262 22.9027 7.86701 22.8707 8.23264 22.8899C9.54206 22.9634 11.4702 23.9894 11.9109 26.9073C12.3015 29.4929 11.6828 32.1201 9.31393 32.5324ZM38.9524 27.8566C38.9336 27.7894 38.8117 27.3324 38.643 26.7827C38.4742 26.233 38.3024 25.8463 38.3024 25.8463C38.9743 24.8171 38.9868 23.8935 38.8993 23.3725C38.8024 22.7269 38.5399 22.174 38.0086 21.6051C37.4773 21.0362 36.3929 20.4514 34.8679 20.0135C34.6929 19.9624 34.1178 19.8026 34.0678 19.7866C34.0647 19.7546 34.0241 17.8562 33.9897 17.0412C33.9647 16.4531 33.9147 15.5327 33.6366 14.6282C33.3053 13.4041 32.7241 12.3302 32.0022 11.6463C33.996 9.53372 35.2398 7.20381 35.2366 5.20949C35.2304 1.36786 30.6177 0.207697 24.9363 2.61431L23.7331 3.13846L21.5237 0.92361C15.0422 -4.85801 -5.21466 18.1726 1.26055 23.7656L2.67622 24.9929C2.30745 25.9645 2.1637 27.0799 2.28245 28.2784C2.43246 29.8189 3.21061 31.2923 4.47002 32.4333C5.66381 33.5167 7.23574 34.2007 8.76079 34.2007C11.2827 40.1421 17.0423 43.7856 23.7925 43.9901C31.0365 44.2106 37.1179 40.7334 39.6649 34.4883C39.8305 34.0505 40.5399 32.0753 40.5399 30.3335C40.5368 28.5853 39.568 27.8566 38.9524 27.8566Z" fill="#495057"/>
</g>
</svg>
