<svg width="77" height="20" viewBox="0 0 77 20" fill="none" xmlns="http://www.w3.org/2000/svg">
<g opacity="0.5">
<path d="M65.7278 18.7342C66.7862 18.8354 67.8446 18.9367 68.956 19.038L71.3374 13.4683L73.5601 19.5443C74.7244 19.6962 75.8357 19.8481 77 20L73.0838 9.31644L77 0H73.6659L73.613 0.0506206L71.4962 5.06329L69.6439 0H66.3628L69.7498 9.21517L65.7278 18.7342Z" fill="#495057"/>
<path d="M63.2406 18.5318V0.0507812H59.9595V18.2786C61.0708 18.3293 62.1822 18.4305 63.2406 18.5318Z" fill="#495057"/>
<path d="M38.5794 17.5191C39.4791 17.5191 40.3787 17.5191 41.2254 17.5191V10.7343H45.1945V7.84826H41.2254V2.93686H45.7766V0.0507812H37.9443V17.5191C38.156 17.5191 38.3677 17.5191 38.5794 17.5191Z" fill="#495057"/>
<path d="M28.3656 17.671C29.4769 17.6204 30.5353 17.6204 31.6467 17.5698V2.93686H34.7161V0.0507812H25.2961V2.93686H28.3656V17.671Z" fill="#495057"/>
<path d="M3.22817 19.6457V8.60776L7.14433 19.19C8.36151 19.0381 9.52577 18.9368 10.7429 18.8356V0.0507812H7.56769V11.4432L3.33401 0.0507812H3.17526H0V20.0002C1.11134 19.8989 2.16975 19.747 3.22817 19.6457Z" fill="#495057"/>
<path d="M22.1209 2.93686V0.0507812H14.2886V15.5951V18.4812C16.8817 18.2786 19.5278 18.0761 22.1209 17.9242V17.1141V15.0381C20.5862 15.1394 19.1044 15.2407 17.5697 15.3419V10.7343H21.5387V7.84826H17.5697V2.98748L22.1209 2.93686Z" fill="#495057"/>
<path d="M52.286 14.9369V0.0507812H49.0049V14.7849V17.671C51.6509 17.7723 54.2441 17.8736 56.8372 18.0761V17.1647V15.19C55.3025 15.0888 53.8207 14.9875 52.286 14.9369Z" fill="#495057"/>
</g>
</svg>
