<svg width="92" height="32" viewBox="0 0 92 32" fill="none" xmlns="http://www.w3.org/2000/svg">
<g opacity="0.5">
<path d="M5.29359 22.8541C5.68172 23.8875 6.22078 24.7715 6.90898 25.506C7.59719 26.2406 8.41117 26.8023 9.35273 27.1912C10.2943 27.5801 11.3185 27.7763 12.4254 27.7763C13.5017 27.7763 14.5116 27.5747 15.4531 27.1696C16.3947 26.7645 17.2177 26.1956 17.9202 25.461C18.6228 24.7265 19.1691 23.8497 19.5572 22.8325C19.9453 21.8134 20.1412 20.6756 20.1412 19.4171V0H24.8508V31.4617H20.1861V28.5397C19.1403 29.6487 17.9059 30.5021 16.4845 31.1016C15.0632 31.7011 13.5323 32 11.8863 32C10.2116 32 8.64836 31.7083 7.19828 31.1232C5.75 30.5399 4.49219 29.7081 3.43203 28.6297C2.37008 27.5513 1.53273 26.255 0.92 24.7427C0.307266 23.2285 0 21.5434 0 19.6854V0H4.70961V19.4153C4.70961 20.6738 4.90367 21.8206 5.29359 22.8541Z" fill="#495057"/>
<path d="M32.969 0V11.4612C34.0148 10.4134 35.2276 9.58164 36.6023 8.96771C37.9787 8.35378 39.4737 8.04591 41.0873 8.04591C42.7619 8.04591 44.3324 8.36098 45.7969 8.98931C47.2613 9.61764 48.5335 10.4728 49.6098 11.5513C50.6862 12.6297 51.5379 13.9026 52.1668 15.3717C52.7939 16.8408 53.1083 18.3981 53.1083 20.0455C53.1083 21.6928 52.7939 23.2447 52.1668 24.6976C51.5397 26.1506 50.6862 27.4162 49.6098 28.4947C48.5335 29.5731 47.2631 30.4265 45.7969 31.0566C44.3306 31.6849 42.7619 32 41.0873 32C39.4719 32 37.9697 31.6921 36.5789 31.0782C35.1881 30.4643 33.9698 29.6325 32.9223 28.5847V31.4617H28.4373V0H32.969ZM33.4847 23.1457C33.889 24.1053 34.4496 24.9443 35.1666 25.6627C35.8835 26.381 36.7208 26.9517 37.6786 27.3712C38.6363 27.7907 39.6677 27.9995 40.7746 27.9995C41.8509 27.9995 42.868 27.7889 43.8257 27.3712C44.7834 26.9517 45.6118 26.3828 46.3162 25.6627C47.0187 24.9443 47.5794 24.1053 47.998 23.1457C48.4167 22.1861 48.6251 21.1527 48.6251 20.0455C48.6251 18.9364 48.4149 17.8958 47.998 16.9218C47.5794 15.9478 47.0187 15.1016 46.3162 14.3833C45.6136 13.6649 44.7834 13.1032 43.8257 12.6981C42.868 12.293 41.8527 12.0914 40.7746 12.0914C39.6965 12.0914 38.6812 12.293 37.7235 12.6981C36.7658 13.1032 35.9302 13.6649 35.2115 14.3833C34.4945 15.1016 33.9249 15.9496 33.5062 16.9218C33.0876 17.8958 32.8791 18.9364 32.8791 20.0455C32.8791 21.1545 33.0822 22.1879 33.4847 23.1457Z" fill="#495057"/>
<path d="M55.6671 15.4167C56.2654 13.9782 57.0884 12.7126 58.1342 11.6197C59.18 10.5269 60.4216 9.66451 61.8573 9.03618C63.293 8.40784 64.8473 8.09277 66.522 8.09277C68.1661 8.09277 69.6917 8.39164 71.0968 8.99117C72.502 9.59069 73.7131 10.4225 74.7301 11.4865C75.7472 12.5505 76.5396 13.809 77.1074 15.2619C77.6752 16.7148 77.9591 18.2955 77.9591 20.0041V21.4876H59.3435C59.4926 22.4166 59.7927 23.2772 60.2401 24.0712C60.6893 24.8651 61.25 25.5547 61.922 26.138C62.594 26.7231 63.3577 27.1786 64.2094 27.5081C65.0611 27.8376 65.9668 28.0032 66.9227 28.0032C69.645 28.0032 71.8425 26.8798 73.5172 24.6329L76.7911 27.0598C75.6555 28.5883 74.2486 29.7874 72.5739 30.6552C70.8992 31.5248 69.0161 31.9587 66.9227 31.9587C65.2175 31.9587 63.6254 31.6598 62.1448 31.0603C60.6642 30.4607 59.3794 29.6218 58.2869 28.5433C57.1962 27.4649 56.3355 26.1992 55.7084 24.7463C55.0813 23.2934 54.7668 21.7127 54.7668 20.0041C54.7686 18.382 55.0687 16.8534 55.6671 15.4167ZM61.9687 13.6398C60.6983 14.7038 59.8538 16.1189 59.4351 17.8869H73.3861C72.9979 16.1189 72.1678 14.7038 70.8956 13.6398C69.6252 12.5757 68.1374 12.0446 66.4322 12.0446C64.7269 12.0446 63.2391 12.5775 61.9687 13.6398Z" fill="#495057"/>
<path d="M86.4388 14.1568C85.481 15.2046 85.0031 16.6287 85.0031 18.4273V31.462H80.4731V8.53956H84.9581V11.3716C85.526 10.4426 86.2663 9.70801 87.1791 9.1697C88.0919 8.62958 89.1754 8.36133 90.4314 8.36133H92.0001V12.5868H90.117C88.6202 12.585 87.3947 13.1089 86.4388 14.1568Z" fill="#495057"/>
</g>
</svg>
