<svg width="333" height="324" viewBox="0 0 333 324" fill="white" xmlns="http://www.w3.org/2000/svg">
<path d="M332.64 278.88L326.88 273.12L316.32 281.28C306.08 271.36 297.76 257.12 291.36 238.56C282.72 213.28 276 196.48 271.2 188.16C259.36 168.64 241.28 151.52 216.96 136.8L284.16 88.8L259.68 55.2C251.04 43.36 243.2 32.8 236.16 23.52C229.44 14.24 223.52 6.40001 218.4 0L132.96 56.64C131.36 40.32 125.76 27.2 116.16 17.28C106.56 7.04 93.6 1.92 77.28 1.92C55.2 1.92 34.72 9.92001 15.84 25.92V32.16C29.28 28.64 39.52 26.88 46.56 26.88C73.12 26.88 86.24 41.76 85.92 71.52L85.44 92.16L7.68 150.24C60.48 176.16 86.88 209.76 86.88 251.04C51.36 261.92 22.4 282.24 0 312L0.48 314.4C36.96 300.64 68 293.76 93.6 293.76C96.8 293.76 99.84 293.92 102.72 294.24C105.92 294.24 108.8 294.4 111.36 294.72C125.12 296.32 138.72 300.8 152.16 308.16C154.72 309.76 158.24 311.84 162.72 314.4C167.2 316.96 172.64 320.16 179.04 324L228 274.56L221.76 268.32L211.68 277.44C197.92 269.44 183.2 262.72 167.52 257.28V174.24C189.92 174.24 207.52 184 220.32 203.52C224.8 210.24 234.08 230.88 248.16 265.44C259.04 292.32 271.04 310.88 284.16 321.12H288.96L332.64 278.88ZM236.64 110.88L167.52 161.76V45.12L182.4 35.04L236.64 110.88ZM157.44 253.92C150.72 252 143.52 251.04 135.84 251.04V67.2L157.44 52.8V253.92ZM84.96 157.92L48.96 129.12L84.96 105.12V157.92Z" />
</svg>
