<svg fill="none" height="22" viewBox="0 0 28 22" width="28" xmlns="http://www.w3.org/2000/svg"><path d="m12.5312 16.9375c0 1.3333-.5416 2.5-1.625 3.5-1.06245 1-2.32287 1.5-3.7812 1.5-2.29167 0-4.05208-.7604-5.28125-2.2813-1.229167-1.5208-1.84375-3.625-1.84375-6.3124 0-2.5 1.05208-5.02088 3.15625-7.56255 2.125-2.54167 4.67708-4.46875 7.65625-5.78125l1.375 2.21875c-2.35417 1.14583-4.19792 2.47917-5.53125 4s-2.10417 3.36458-2.3125 5.53125h1.75c1.29167 0 2.34375.1458 3.15625.4375s1.4688.6979 1.9688 1.2187c.4791.5.8124 1.0521 1 1.6563.2083.6042.3124 1.2292.3124 1.875zm15.4063 0c0 1.3333-.5417 2.5-1.625 3.5-1.0625 1-2.3229 1.5-3.7813 1.5-2.2916 0-4.052-.7604-5.2812-2.2813-1.2292-1.5208-1.8438-3.625-1.8438-6.3124 0-2.5 1.0521-5.02088 3.1563-7.56255 2.125-2.54167 4.6771-4.46875 7.6563-5.78125l1.375 2.21875c-2.3542 1.14583-4.198 2.47917-5.5313 4s-2.1042 3.36458-2.3125 5.53125h1.75c1.2917 0 2.3438.1458 3.1562.4375.8126.2917 1.4688.6979 1.9688 1.2187.4792.5.8125 1.0521 1 1.6563.2083.6042.3125 1.2292.3125 1.875z" fill="#fff" opacity=".1"/></svg>