<svg width="35" height="28" viewBox="0 0 35 28" fill="none" xmlns="http://www.w3.org/2000/svg">
<path fill-rule="evenodd" clip-rule="evenodd" d="M7.26962 0.0593262C5.27254 0.0593262 3.79483 1.80725 3.86097 3.70289C3.92445 5.52407 3.84199 7.88272 3.24818 9.80623C2.65258 11.7354 1.6453 12.9574 0 13.1143V14.8857C1.6453 15.0426 2.65258 16.2646 3.24818 18.1938C3.84199 20.1173 3.92445 22.4759 3.86097 24.2971C3.79483 26.1925 5.27254 27.9407 7.26992 27.9407H27.7331C29.7301 27.9407 31.2075 26.1928 31.1414 24.2971C31.0779 22.4759 31.1604 20.1173 31.7542 18.1938C32.3501 16.2646 33.3547 15.0426 35 14.8857V13.1143C33.3547 12.9574 32.3501 11.7354 31.7542 9.80623C31.1604 7.88301 31.0779 5.52407 31.1414 3.70289C31.2075 1.80755 29.7301 0.0593262 27.7331 0.0593262H7.26932H7.26962ZM23.7288 17.2221C23.7288 19.8323 21.7819 21.4153 18.5509 21.4153H13.0508C12.8935 21.4153 12.7426 21.3528 12.6314 21.2415C12.5201 21.1303 12.4576 20.9794 12.4576 20.822V7.17797C12.4576 7.02064 12.5201 6.86975 12.6314 6.7585C12.7426 6.64725 12.8935 6.58475 13.0508 6.58475H18.5194C21.2136 6.58475 22.9817 8.04407 22.9817 10.2847C22.9817 11.8573 21.7922 13.2653 20.2769 13.5118V13.5939C22.3398 13.8203 23.7288 15.2487 23.7288 17.2221ZM17.9511 8.46526H14.8151V12.8948H17.4564C19.4983 12.8948 20.6242 12.0726 20.6242 10.6029C20.6242 9.22577 19.6561 8.46526 17.9511 8.46526ZM14.8151 14.6525V19.5342H18.0665C20.1923 19.5342 21.3186 18.6811 21.3186 17.0779C21.3186 15.4745 20.1609 14.6523 17.9298 14.6523H14.8151V14.6525Z"/>
</svg>
