<svg xmlns="http://www.w3.org/2000/svg" width="24" height="24" viewBox="0 0 24 24"><title>clipboard</title><g fill="none"><path  stroke-linecap="round" stroke-linejoin="round" stroke-width="1.5" d="M9 6.75H7.75a2 2 0 0 0-2 2v8.5a2 2 0 0 0 2 2h8.5a2 2 0 0 0 2-2v-8.5a2 2 0 0 0-2-2H15"></path><path stroke-linecap="round" stroke-linejoin="round" stroke-width="1.5" d="M14 8.25h-4a1 1 0 0 1-1-1v-1.5a1 1 0 0 1 1-1h4a1 1 0 0 1 1 1v1.5a1 1 0 0 1-1 1z"></path><path stroke-linecap="round" stroke-linejoin="round" stroke-width="1.5" d="M9.75 12.25h4.5"></path><path stroke-linecap="round" stroke-linejoin="round" stroke-width="1.5" d="M9.75 15.25h4.5"></path></g></svg>
