<svg width="512" height="512" viewBox="0 0 512 512" fill="none" xmlns="http://www.w3.org/2000/svg">
<rect width="512" height="512" rx="30" fill="#222222"/>
<path d="M419.64 379.04L413.88 373.28L403.32 381.44C392.76 371.36 384.6 356.96 378.36 338.72C369.72 313.28 363 296.48 358.2 288.32C346.2 268.64 328.44 251.84 303.96 236.96L371.16 188.96L346.68 155.36C329.4 131.84 315.48 113.12 305.4 100.16L219.96 156.8C216.6 124.16 196.44 102.08 164.28 102.08C142.2 102.08 121.56 110.24 102.84 126.08V132.32C115.8 128.96 125.88 127.04 133.56 127.04C160.44 127.04 173.4 141.92 172.92 171.68L172.44 192.32L94.68 250.4C147.48 276.32 173.88 309.92 173.88 351.2C138.36 362.24 109.56 382.4 87 412.16L87.48 414.56C124.44 400.64 155.16 393.92 180.6 393.92C186.84 393.92 193.08 394.4 198.36 394.88C211.32 396.32 225.24 400.64 239.16 408.32C244.44 411.2 253.08 416.48 266.04 424.16L315 374.72L308.76 368.48L298.68 377.6C284.76 369.44 269.88 362.72 254.52 357.44V274.4C276.6 274.4 294.36 284 307.32 303.68C312.12 310.88 321.24 331.52 335.16 365.6C346.2 392.96 358.2 411.2 371.16 421.28H375.96L419.64 379.04ZM323.64 211.04L254.52 261.92V145.28L269.4 135.2L323.64 211.04ZM244.44 354.08C237.72 352.16 230.52 351.2 222.84 351.2V167.36L244.44 152.96V354.08ZM171.96 258.08L135.96 229.28L171.96 205.28V258.08Z" fill="white"/>
</svg>
