<svg width="2116" height="622" viewBox="0 0 2116 622" xmlns="http://www.w3.org/2000/svg">
<g>
<path d="M586.557 542.534L576.401 532.388L557.779 546.761C539.159 529.008 524.771 503.646 513.767 471.52C498.531 426.715 486.682 397.126 478.218 382.753C457.058 348.092 425.74 318.503 382.573 292.296L501.07 207.756L457.904 148.579C427.434 107.154 402.888 74.1841 385.113 51.3584L234.454 151.115C228.528 93.6281 192.98 54.7399 136.271 54.7399C97.3363 54.7399 60.9409 69.1117 27.9313 97.0097V108C50.7843 102.082 68.5586 98.7005 82.1011 98.7005C129.5 98.7005 152.353 124.908 151.506 177.322L150.66 213.675L13.5424 315.968C106.647 361.618 153.199 420.796 153.199 493.5C90.5652 512.945 39.781 548.451 0 600.865L0.846404 605.092C66.0194 580.577 120.189 568.741 165.049 568.741C176.052 568.741 187.055 569.586 196.366 570.431C219.218 572.968 243.764 580.577 268.31 594.103C277.62 599.175 292.855 608.474 315.709 622L402.042 534.925L391.038 523.934L373.263 539.997C348.717 525.626 322.479 513.79 295.395 504.491V358.238C334.329 358.238 365.645 375.146 388.499 409.807C396.964 422.488 413.044 458.839 437.59 518.862C457.058 567.049 478.218 599.175 501.07 616.928H509.535L586.557 542.534ZM417.276 246.646L295.395 336.256V130.826L321.633 113.072L417.276 246.646ZM277.62 498.572C265.77 495.192 253.074 493.5 239.532 493.5V169.714L277.62 144.352V498.572ZM149.813 329.494L86.3332 278.77L149.813 236.5V329.494Z" />
<path d="M895.302 549.296L885.992 541.689L870.756 549.296C859.754 545.916 851.29 537.462 847.058 523.089V301.595C852.982 278.77 862.292 257.635 875.836 236.5L874.142 233.118L850.444 251.718L730.255 211.983C704.016 236.5 674.392 247.491 643.074 244.954L632.072 244.109L672.698 349.784C616.836 399.661 588.905 450.385 588.905 502.799C588.905 537.462 609.218 573.813 649 611.011H653.232L768.343 518.862C768.343 560.287 786.117 590.721 822.511 610.166L895.302 549.296ZM768.343 390.362L681.162 348.092L645.614 251.718L768.343 297.368V390.362ZM769.189 496.882L705.708 550.988C672.698 518.017 656.616 482.511 656.616 444.468C656.616 418.261 665.08 390.362 681.162 361.618L769.189 405.58V496.882Z"/>
<path d="M1032.83 88.5559H970.197L949.883 174.786H960.885L1032.83 88.5559ZM1054.84 549.296L1046.37 541.689L1031.14 551.833C1017.6 545.069 1009.98 535.77 1007.44 524.781V290.606L1028.6 266.934L963.425 212.83L900.79 264.399L925.336 290.606V511.253L924.49 526.471C921.95 562.822 939.727 591.566 977.813 611.856L1054.84 549.296Z"/>
<path d="M1262.09 544.224L1251.94 533.235L1231.62 548.451L1169.83 509.563V153.651C1169.83 122.372 1183.38 97.0097 1211.31 76.7203C1179.99 80.9473 1150.37 95.3191 1124.13 119.835L1114.82 120.681C1098.74 108 1080.12 98.7005 1058.96 93.6281C1077.58 113.072 1086.89 130.826 1086.89 147.733V485.046C1086.89 509.563 1079.27 529.853 1064.88 545.916C1118.2 565.359 1157.99 586.494 1185.07 610.166L1262.09 544.224Z"/>
<path d="M1571.54 190.848C1571.54 169.714 1563.07 159.569 1546.15 159.569C1532.6 159.569 1525.83 163.796 1525.83 173.095L1530.06 180.704C1542.76 196.767 1548.69 206.911 1548.69 212.83C1548.69 228.891 1532.6 242.419 1516.52 242.419L1494.52 244.954C1468.28 244.954 1432.73 233.118 1386.18 210.293C1354.86 239.882 1320.16 263.552 1282.07 280.46V410.652L1363.32 455.457L1262.6 599.175L1273.6 606.784C1303.23 594.103 1331.16 587.339 1359.09 587.339C1387.02 587.339 1415.8 594.948 1444.58 609.319C1468.28 593.258 1485.21 583.112 1494.52 577.195C1512.29 566.204 1530.91 557.75 1549.53 551.833V396.281L1469.97 347.247L1546.99 243.264C1563.07 221.284 1571.54 203.529 1571.54 190.848ZM1489.44 291.451L1407.34 399.661L1356.55 373.454L1357.4 276.233C1388.72 288.914 1416.65 294.833 1442.04 294.833C1459.81 294.833 1475.9 293.988 1489.44 291.451ZM1479.28 432.632L1478.43 545.069C1447.12 529.853 1416.65 522.244 1387.02 522.244C1365.86 522.244 1347.24 523.934 1332.01 527.316L1425.96 405.58L1479.28 432.632Z"/>
<path fill-rule="evenodd" clip-rule="evenodd" d="M1785.38 39.6279H1983.76C2034.89 39.6279 2076.33 81.026 2076.33 132.093V343.442C2076.33 394.51 2034.89 435.907 1983.76 435.907H1785.38C1734.25 435.907 1692.81 394.51 1692.81 343.442V132.093C1692.81 81.026 1734.25 39.6279 1785.38 39.6279ZM1653.13 132.093C1653.13 59.1401 1712.34 0 1785.38 0H1983.76C2056.8 0 2116 59.1401 2116 132.093V343.442C2116 416.394 2056.8 475.535 1983.76 475.535H1785.38C1712.34 475.535 1653.13 416.394 1653.13 343.442V132.093ZM1882.95 271.367V148.75H1917.8V274.276C1917.8 315.555 1886.61 343.794 1839.75 343.794C1792.69 343.794 1761.69 315.555 1761.69 274.276V148.75H1796.54V271.367C1796.54 295.479 1813.26 312.74 1839.75 312.74C1866.14 312.74 1882.95 295.479 1882.95 271.367ZM1951.72 148.75H1986.56V340.885H1951.72V148.75Z" />
</g>
</svg>
