<svg xmlns="http://www.w3.org/2000/svg" width="24" height="24" viewBox="0 0 24 24"><title>book</title><g fill="none"><path stroke-linecap="round" stroke-linejoin="round" stroke-width="1.5" d="M19.25 5.75a1 1 0 0 0-1-1H14a2 2 0 0 0-2 2v12.5l.828-.828a4 4 0 0 1 2.829-1.172h2.593a1 1 0 0 0 1-1V5.75z"></path><path stroke-linecap="round" stroke-linejoin="round" stroke-width="1.5" d="M4.75 5.75a1 1 0 0 1 1-1H10a2 2 0 0 1 2 2v12.5l-.828-.828a4 4 0 0 0-2.829-1.172H5.75a1 1 0 0 1-1-1V5.75z"></path></g></svg>
