<svg height="752pt" viewBox="0 0 752 752" width="752pt" xmlns="http://www.w3.org/2000/svg"><path d="m530.39 490.61-1.4219-4.7383-2.8438-7.5781-1.8945-4.7344-5.207-9.4727-7.1055-8.9961-9.4688-8.5234-10.895-9.9453-8.9961-8.5273-8.5273-9.4688-7.1016-9.4727-6.6328-9.9453-7.1016-13.262-4.2617-8.9961-5.2109-9.9453-6.6289-10.895-7.5781-9.9453-5.207-5.207-5.2109-4.7383-7.1055-5.207-8.5234-3.7891-10.891-3.7891-10.895-1.4219h-11.363l-10.895 1.4219-15.629 5.6836-15.152 10.418-9.9453 9.9453-6.1562 9.4727-6.1562 10.891-8.0508 16.578-7.5781 14.68-8.5273 11.367-10.418 13.258-30.781 28.414-2.8438 2.3711-7.1016 9.9453-5.6836 11.363-3.3164 14.207-1.8945 12.789-.47266 14.207 1.4219 9.4727 4.2617 13.258 6.1562 12.312 6.6289 8.5273 8.5273 8.5234 11.363 7.5781 13.262 6.1562 9.9453 2.3672 15.156.47266 14.68-3.3125 8.9961-4.2656 3.7891-2.8398 8.5273-4.7344 8.0508-4.7383 7.1016-4.2617 7.5781-3.3164 6.1562-2.8398 7.1055-1.8945 7.5742-.47266 9 1.4219 6.6289 1.418 10.895 5.2109 13.258 6.6289 10.895 7.1055 9.9453 5.6836 9.9453 4.2617 9.4688 1.8945 8.0508.47266 6.6328-.47266 10.418-2.8438 13.262-6.1562 9.4688-6.6289 9.9453-9.9453 7.1055-9.4727 6.1562-12.785 3.7891-12.312 1.418-10.422v-10.891l-.47266-6.1562z"/><path d="m449.37 163.04c28.09 2.9727 47.43 37.852 43.191 77.91-4.2383 40.059-30.445 70.121-58.539 67.148-28.09-2.9688-47.43-37.852-43.191-77.91 4.2383-40.055 30.445-70.121 58.539-67.148"/><path d="m361.04 230c4.2344 40.055-15.102 74.938-43.195 77.91s-54.301-27.094-58.539-67.152c-4.2344-40.055 15.102-74.938 43.195-77.91 28.09-2.9727 54.301 27.094 58.539 67.152"/><path d="m552.25 277.83c27.574 6.1406 42.871 42.785 34.172 81.844-8.6992 39.062-38.105 65.75-65.676 59.609-27.574-6.1406-42.871-42.785-34.172-81.848 8.6992-39.059 38.105-65.746 65.676-59.605"/><path d="m265.38 337.42c8.6992 39.059-6.5977 75.703-34.172 81.844s-56.977-20.547-65.676-59.605c-8.6992-39.062 6.5977-75.707 34.172-81.848 27.57-6.1406 56.977 20.547 65.676 59.609"/></svg>
