<svg fill="currentColor" width="519" height="152" viewBox="0 0 519 152" xmlns="http://www.w3.org/2000/svg">
<path d="M143.867 132.581L141.376 130.101L136.809 133.614C132.242 129.275 128.713 123.077 126.014 115.227C122.277 104.278 119.371 97.0468 117.295 93.5344C112.105 85.0642 104.423 77.8334 93.8354 71.4291L122.9 50.7698L112.312 36.3086C104.838 26.1856 98.8179 18.1285 94.4584 12.5505L57.5055 36.9284C56.052 22.8801 47.3329 13.3769 33.4237 13.3769C23.8741 13.3769 14.9472 16.8889 6.85081 23.7065V26.3922C12.4561 24.946 16.8157 24.1197 20.1373 24.1197C31.7629 24.1197 37.3681 30.524 37.1605 43.3327L36.9529 52.2163L3.32161 77.2139C26.1577 88.3696 37.5757 102.831 37.5757 120.598C22.2133 125.35 9.75724 134.027 0 146.835L0.207601 147.868C16.1928 141.877 29.4793 138.985 40.4822 138.985C43.1809 138.985 45.8798 139.191 48.1634 139.398C53.7685 140.018 59.789 141.877 65.8096 145.183C68.0931 146.422 71.8297 148.695 77.4352 152L98.6104 130.721L95.9114 128.035L91.5518 131.961C85.5313 128.449 79.0957 125.556 72.4527 123.284V87.5436C82.0023 87.5436 89.6833 91.6754 95.2889 100.146C97.3649 103.245 101.309 112.128 107.329 126.796C112.105 138.571 117.295 146.422 122.9 150.76H124.976L143.867 132.581ZM102.347 60.2735L72.4527 82.1718V31.9702L78.8882 27.6317L102.347 60.2735ZM68.0931 121.837C65.1866 121.011 62.0726 120.598 58.751 120.598V41.4734L68.0931 35.2756V121.837ZM36.7453 80.5193L21.1753 68.1237L36.7453 57.7941V80.5193Z" />
<path d="M219.594 134.233L217.311 132.374L213.574 134.233C210.875 133.407 208.799 131.341 207.761 127.829V73.7015C209.214 68.1237 211.498 62.9588 214.82 57.794L214.404 56.9676L208.592 61.5129L179.113 51.8027C172.677 57.794 165.411 60.4799 157.729 59.86L155.031 59.6535L164.995 85.4776C151.294 97.6662 144.443 110.062 144.443 122.87C144.443 131.341 149.425 140.224 159.183 149.314H160.221L188.455 126.796C188.455 136.919 192.814 144.356 201.741 149.108L219.594 134.233ZM188.455 95.3938L167.071 85.0641L158.352 61.5129L188.455 72.6685V95.3938ZM188.662 121.424L173.092 134.646C164.995 126.589 161.051 117.912 161.051 108.616C161.051 102.212 163.127 95.3938 167.071 88.3695L188.662 99.1126V121.424Z" />
<path d="M253.326 21.6406H237.964L232.982 42.713H235.68L253.326 21.6406ZM258.724 134.233L256.648 132.374L252.911 134.853C249.59 133.2 247.721 130.928 247.098 128.242V71.0162L252.288 65.2314L236.303 52.0098L220.941 64.6119L226.961 71.0162V124.936L226.754 128.655C226.131 137.538 230.491 144.563 239.832 149.521L258.724 134.233Z" />
<path d="M309.559 132.994L307.068 130.308L302.085 134.027L286.93 124.523V37.5482C286.93 29.9043 290.252 23.7065 297.102 18.7483C289.421 19.7813 282.155 23.2933 275.72 29.2845L273.436 29.4911C269.492 26.3922 264.925 24.1197 259.735 22.8801C264.302 27.6317 266.585 31.9702 266.585 36.102V118.532C266.585 124.523 264.717 129.482 261.188 133.407C274.266 138.158 284.024 143.323 290.667 149.108L309.559 132.994Z" />
<path d="M385.458 46.638C385.458 41.4735 383.382 38.9944 379.23 38.9944C375.908 38.9944 374.247 40.0273 374.247 42.2998L375.285 44.1592C378.399 48.0845 379.853 50.5634 379.853 52.0098C379.853 55.9347 375.908 59.2406 371.964 59.2406L366.566 59.8601C360.131 59.8601 351.411 56.9677 339.993 51.3899C332.312 58.6206 323.8 64.4049 314.458 68.5368V100.352L334.388 111.301L309.684 146.422L312.382 148.282C319.648 145.183 326.499 143.53 333.35 143.53C340.201 143.53 347.259 145.389 354.318 148.901C360.131 144.976 364.283 142.497 366.566 141.051C370.926 138.365 375.493 136.299 380.06 134.853V96.8403L360.546 84.8577L379.437 59.4471C383.382 54.0758 385.458 49.7369 385.458 46.638ZM365.321 71.2227L345.183 97.6663L332.727 91.262L332.935 67.5038C340.616 70.6027 347.467 72.0492 353.695 72.0492C358.055 72.0492 361.999 71.8427 365.321 71.2227ZM362.829 105.724L362.622 133.2C354.941 129.482 347.467 127.622 340.201 127.622C335.011 127.622 330.444 128.035 326.707 128.862L349.75 99.1127L362.829 105.724Z" />
<path fill-rule="evenodd" clip-rule="evenodd" d="M437.908 9.68399H486.564C499.107 9.68399 509.27 19.8006 509.27 32.28V83.9281C509.27 96.4076 499.107 106.524 486.564 106.524H437.908C425.368 106.524 415.202 96.4076 415.202 83.9281V32.28C415.202 19.8006 425.368 9.68399 437.908 9.68399ZM405.471 32.28C405.471 14.4522 419.993 0 437.908 0H486.564C504.479 0 519 14.4522 519 32.28V83.9281C519 101.756 504.479 116.208 486.564 116.208H437.908C419.993 116.208 405.471 101.756 405.471 83.9281V32.28ZM461.838 66.3149V36.3504H470.387V67.0257C470.387 77.1131 462.737 84.0139 451.243 84.0139C439.7 84.0139 432.098 77.1131 432.098 67.0257V36.3504H440.645V66.3149C440.645 72.207 444.746 76.4252 451.243 76.4252C457.716 76.4252 461.838 72.207 461.838 66.3149ZM478.706 36.3504H487.251V83.303H478.706V36.3504Z" />
</svg>
