<svg width="35" height="21" viewBox="0 0 35 21" fill="none" xmlns="http://www.w3.org/2000/svg">
<path fill-rule="evenodd" clip-rule="evenodd" d="M17.5 0C12.8333 0 9.91667 2.29091 8.75 6.87273C10.5 4.58182 12.5417 3.72273 14.875 4.29545C16.2063 4.62191 17.1578 5.57073 18.211 6.62009C19.9267 8.33 21.9126 10.3091 26.25 10.3091C30.9167 10.3091 33.8333 8.01818 35 3.43636C33.25 5.72727 31.2083 6.58636 28.875 6.01364C27.5437 5.68718 26.5922 4.73836 25.539 3.689C23.8233 1.97909 21.8374 0 17.5 0ZM8.75 10.3091C4.08333 10.3091 1.16667 12.6 0 17.1818C1.75 14.8909 3.79167 14.0318 6.125 14.6045C7.4563 14.9316 8.40778 15.8798 9.46102 16.9292C11.1767 18.6391 13.1626 20.6182 17.5 20.6182C22.1667 20.6182 25.0833 18.3273 26.25 13.7455C24.5 16.0364 22.4583 16.8955 20.125 16.3227C18.7937 15.9963 17.8422 15.0475 16.789 13.9981C15.0733 12.2882 13.0874 10.3091 8.75 10.3091Z"/>
</svg>
