<?xml version="1.0" standalone="no"?>
<!DOCTYPE svg PUBLIC "-//W3C//DTD SVG 20010904//EN"
 "http://www.w3.org/TR/2001/REC-SVG-20010904/DTD/svg10.dtd">
<svg version="1.0" xmlns="http://www.w3.org/2000/svg"
 width="700.000000pt" height="700.000000pt" viewBox="0 0 700.000000 700.000000"
 preserveAspectRatio="xMidYMid meet">
<metadata>
Created by potrace 1.14, written by Peter Selinger 2001-2017
</metadata>
<g transform="translate(0.000000,700.000000) scale(0.100000,-0.100000)"
fill="#000000" stroke="none">
<path d="M39 6987 c-9 -7 -21 -22 -27 -34 -9 -16 -12 -862 -12 -3450 0 -1885
3 -3438 6 -3451 15 -56 -229 -52 3503 -52 l3440 0 26 27 25 28 -2 3451 c-3
3393 -3 3451 -22 3470 -19 19 -77 19 -3470 21 -2704 2 -3454 0 -3467 -10z
m4453 -1158 c213 -71 545 -289 768 -504 389 -374 634 -839 735 -1390 25 -139
33 -261 30 -465 -2 -113 -6 -218 -9 -235 -2 -16 -7 -50 -11 -75 -3 -25 -12
-79 -21 -120 -8 -41 -16 -84 -18 -95 -7 -36 -55 -198 -80 -270 -81 -238 -236
-516 -406 -730 -135 -171 -386 -401 -555 -511 -33 -21 -62 -42 -65 -45 -11
-13 -269 -151 -321 -171 -180 -69 -335 -56 -479 42 -175 119 -271 317 -271
560 0 125 46 305 85 332 6 4 7 8 3 8 -13 0 53 89 108 145 141 144 319 212 525
202 113 -6 169 -20 268 -67 96 -46 131 -38 167 39 11 22 23 41 28 41 4 0 7 4
7 10 0 5 36 71 80 146 108 184 108 202 5 269 -250 161 -361 497 -260 788 47
135 136 251 254 332 115 78 114 80 -19 309 -61 104 -110 192 -110 196 0 12
-62 39 -79 35 -9 -2 -53 -20 -98 -40 -165 -72 -336 -81 -500 -24 -98 33 -185
89 -263 168 -85 86 -129 156 -168 263 -24 67 -26 86 -26 233 -1 151 1 165 27
240 38 107 88 188 163 260 81 79 175 129 264 142 19 3 36 6 38 8 11 10 151 -8
204 -26z m-1734 7 c258 -50 458 -327 451 -628 -6 -285 -156 -512 -417 -630
-163 -74 -365 -79 -522 -13 -30 13 -68 30 -85 39 -41 22 -69 20 -99 -6 -38
-35 -236 -387 -236 -421 0 -32 14 -46 120 -124 95 -71 182 -189 226 -308 4
-11 9 -24 11 -30 24 -66 34 -242 19 -337 -8 -50 -46 -152 -79 -211 -55 -100
-114 -162 -247 -260 -72 -53 -70 -63 62 -293 141 -245 136 -242 264 -183 95
45 178 62 289 63 104 1 131 -3 205 -27 160 -52 278 -139 368 -271 84 -123 118
-228 121 -376 5 -188 -60 -352 -188 -480 -85 -83 -155 -124 -253 -144 -127
-27 -233 -5 -403 83 -137 71 -316 183 -323 202 -2 5 -8 9 -13 9 -37 0 -363
310 -478 455 -301 377 -493 847 -539 1325 -16 169 -7 485 18 630 38 222 76
363 147 540 168 425 453 799 827 1085 195 148 464 294 576 311 19 3 36 7 37 8
5 4 108 -2 141 -8z"/>
</g>
</svg>
