<svg fill="none" height="428" viewBox="0 0 80 428" width="80" xmlns="http://www.w3.org/2000/svg"><g clip-rule="evenodd" fill="#e0e7ff" fill-rule="evenodd" opacity=".1"><path d="m-.00000267 145.886.00000054 12.485h12.48570213v-12.485zm.00000629 48.628.00000055 12.486h12.48569583v-12.486zm-.00000575-84.771-.00000054-12.4859h12.48570267v12.4859zm.00000044-36.8001.00000054 12.4857h12.48570115v-12.4857zm-.00000052-11.8286-.00000054-12.4857h12.48570275v12.4857zm-.00000161-36.8.00000055 12.4857h12.48570327v-12.4857zm.00000169-11.8286-.00000054-12.4857 12.48570267-.00000055v12.48570055zm22.34290213 182.0283v12.486h12.4857v-12.486zm0-11.828v-12.486h12.4857l.0001 12.486zm0-36.8v12.485h12.4858v-12.485zm0-11.829v-12.486h12.4858v12.486zm0-36.7999v12.4859h12.4858v-12.4859zm0-11.8285v-12.4857h12.4857v12.4857zm0-36.8v12.4857h12.4858v-12.4857zm0-11.8286v-12.4857h12.4858v12.4857zm0-36.80000098v12.48570098h12.4858v-12.48570152zm22.3428 207.00000098v-12.486h12.4857v12.486zm-.0001-36.8v12.486h12.4857v-12.486zm0-11.829v-12.485h12.4857l.0001 12.485zm0-36.8v12.486h12.4857v-12.486zm0-11.828v-12.4859h12.4857v12.4859zm0-36.8001v12.4857h12.4857v-12.4857zm0-11.8286v-12.4857h12.4857v12.4857zm0-61.11430195v12.48570195h12.4857v-12.4857025zm22.343 207.00000195v-12.486h12.4857v12.486zm0-36.8v12.486h12.4857v-12.486zm0-11.829v-12.485h12.4857v12.485zm0-36.8v12.486h12.4857v-12.486zm0-11.828v-12.4859h12.4857v12.4859zm0-36.8001v12.4857h12.4857v-12.4857z"/><path d="m79.5142 366.886v12.485h-12.4858v-12.485zm0 48.628v12.486h-12.4858v-12.486zm0-84.771v-12.486h-12.4858v12.486zm0-36.8v12.486h-12.4858v-12.486zm0-11.829v-12.485h-12.4858v12.485zm0-36.8v12.486h-12.4858v-12.486zm0-11.828v-12.486h-12.4858v12.486zm-22.3429 182.028v12.486h-12.4857v-12.486zm-.0001-11.828v-12.486h-12.4857v12.486zm0-36.8v12.485h-12.4857v-12.485zm0-11.829v-12.486h-12.4857v12.486zm0-36.8v12.486h-12.4857v-12.486zm0-11.828v-12.486h-12.4857v12.486zm0-36.8v12.485h-12.4857v-12.485zm0-11.829v-12.486h-12.4857v12.486zm0-36.8v12.486h-12.4857v-12.486zm-22.3428 207v-12.486h-12.4857v12.486zm.0001-36.8v12.486h-12.4857v-12.486zm0-11.829v-12.485h-12.4857v12.485zm0-36.8v12.486h-12.4857v-12.486zm0-11.828v-12.486h-12.4857v12.486zm0-36.8v12.486h-12.4857v-12.486zm0-11.829v-12.485h-12.4857v12.485zm0-61.114v12.486h-12.4857v-12.486zm-22.3429 207v-12.486h-12.48572915l-.00000055 12.486zm0-36.8v12.486h-12.48572864l.00000055-12.486zm0-11.829v-12.485h-12.48572703l-.00000054 12.485zm0-36.8v12.486h-12.48572651l.00000054-12.486zm0-11.828v-12.486h-12.48573253l-.00000055 12.486zm0-36.8v12.486h-12.48573202l.00000055-12.486z"/></g></svg>