 <svg width="48" height="48" viewBox="0 0 48 48" xmlns="http://www.w3.org/2000/svg"> <path fill-rule="evenodd" clip-rule="evenodd" d="M42 0C45.3137 0 48 2.68629 48 6V42C48 45.3137 45.3137 48 42 48H6C2.68629 48 0 45.3137 0 42V6C0 2.68629 2.68629 0 6 0H42ZM21.5033 40.9481C21.7923 40.9918 22.026 40.7078 22.026 40.4156V34.1876C22.026 31.1727 18.7622 29.2883 16.1511 30.7958C15.207 31.3409 13.9997 31.0174 13.4545 30.0732C12.9094 29.1291 13.2329 27.9218 14.1771 27.3767C16.8164 25.8529 16.8164 22.0433 14.1771 20.5195C13.2329 19.9744 12.9094 18.7671 13.4545 17.8229C13.9997 16.8788 15.207 16.5553 16.1511 17.1004C18.7622 18.6079 22.026 16.7235 22.026 13.7085V12.1819C22.026 9.30521 19.4534 7.03474 16.8446 8.24694C10.9466 10.9875 6.85714 16.9642 6.85714 23.8961C6.85714 32.5373 13.2121 39.6941 21.5033 40.9481ZM41.3507 23.8961C41.3507 32.6033 34.8983 39.8034 26.5142 40.9758C26.2134 41.0178 25.974 40.7193 25.974 40.4156V34.0722C25.974 31.0759 29.2176 29.2032 31.8125 30.7013C32.7567 31.2464 33.964 30.9229 34.5091 29.9788C35.0542 29.0346 34.7307 27.8273 33.7865 27.2822C31.2199 25.8004 31.2199 22.0958 33.7865 20.614C34.7307 20.0689 35.0542 18.8616 34.5091 17.9174C33.964 16.9732 32.7567 16.6497 31.8125 17.1949C29.2176 18.693 25.974 16.8203 25.974 13.824V12.1564C25.974 9.26895 28.5381 6.9748 31.1714 8.15925C37.1723 10.8585 41.3507 16.8893 41.3507 23.8961Z" /></svg>
