<svg width="49" height="49" viewBox="0 0 49 49" fill="none" xmlns="http://www.w3.org/2000/svg">
<path fill-rule="evenodd" clip-rule="evenodd" d="M6 49C2.68629 49 4.04954e-06 46.3137 4.33923e-06 43L7.57388e-06 6C7.86357e-06 2.68629 2.6863 -2.34175e-07 6.00001 5.55182e-08L43 3.29016e-06C46.3137 3.57985e-06 49 2.68629 49 6L49 43C49 46.3137 46.3137 49 43 49L6 49ZM27.0487 7.19884C26.7537 7.15423 26.5152 7.4441 26.5152 7.74239L26.5152 14.1001C26.5152 17.1779 29.847 19.1015 32.5124 17.5626C33.4762 17.0062 34.7087 17.3364 35.2652 18.3002C35.8216 19.2641 35.4914 20.4965 34.5276 21.053C31.8332 22.6085 31.8332 26.4974 34.5276 28.053C35.4914 28.6095 35.8216 29.8419 35.2652 30.8057C34.7087 31.7696 33.4762 32.0998 32.5124 31.5433C29.847 30.0044 26.5151 31.9281 26.5151 35.0059L26.5151 36.5643C26.5151 39.5009 29.1413 41.8187 31.8044 40.5812C37.8253 37.7836 42 31.6824 42 24.6061C42 15.7849 35.5127 8.4789 27.0487 7.19884ZM6.78789 24.6061C6.78789 15.7175 13.3747 8.3674 21.9335 7.17056C22.2405 7.12763 22.4848 7.43239 22.4848 7.74239L22.4848 14.218C22.4848 17.2767 19.1737 19.1884 16.5247 17.6591C15.5609 17.1026 14.3284 17.4328 13.772 18.3967C13.2155 19.3605 13.5457 20.5929 14.5096 21.1494C17.1297 22.6621 17.1297 26.4439 14.5096 27.9566C13.5457 28.513 13.2155 29.7455 13.772 30.7093C14.3284 31.6732 15.5609 32.0034 16.5247 31.4469C19.1737 29.9175 22.4848 31.8293 22.4848 34.888L22.4848 36.5904C22.4848 39.5379 19.8674 41.8799 17.1792 40.6708C11.0533 37.9153 6.78789 31.7588 6.78789 24.6061Z"/>
</svg>
