<svg xmlns="http://www.w3.org/2000/svg" width="24" height="24" viewBox="0 0 24 24">
  <title>copy</title>
  <g fill="none">
    <path d="M16.167 8c1.707 0 2.56 0 3.242.256a4 4 0 0 1 2.335 2.335c.256.681.256 1.535.256 3.242V15.6c0 2.24 0 3.36-.436 4.216a4 4 0 0 1-1.748 1.748C18.96 22 17.84 22 15.6 22h-1.766c-1.708 0-2.562 0-3.243-.256a4 4 0 0 1-2.334-2.335C8 18.728 8 17.874 8 16.167M8.4 16h1.2c2.24 0 3.36 0 4.216-.436a4 4 0 0 0 1.748-1.748C16 12.96 16 11.84 16 9.6V8.4c0-2.24 0-3.36-.436-4.216a4 4 0 0 0-1.748-1.748C12.96 2 11.84 2 9.6 2H8.4c-2.24 0-3.36 0-4.216.436a4 4 0 0 0-1.748 1.748C2 5.04 2 6.16 2 8.4v1.2c0 2.24 0 3.36.436 4.216a4 4 0 0 0 1.748 1.748C5.04 16 6.16 16 8.4 16z"  stroke-linecap="round" stroke-linejoin="round"></path>
  </g>
</svg>
